<svg width="1275" height="1020" viewBox="0 0 1275 1020" xmlns="http://www.w3.org/2000/svg">
    <title>
        small
    </title>
    <g fill="none" fill-rule="evenodd">
        <path d="M307.19 1016.03c0 1.93-1.57 3.5-3.5 3.5s-3.5-1.57-3.5-3.5c0-1.94 1.57-3.5 3.5-3.5s3.5 1.56 3.5 3.5z" fill="#E6E2D2"/>
        <path d="M202.43 631.06c0 1.11-.9 2-2 2s-2-.89-2-2c0-1.1.9-2 2-2s2 .9 2 2z" fill="#C44740"/>
        <path d="M620.09 74.65c0 3.87-3.13 7-7 7-3.86 0-7-3.13-7-7s3.14-7 7-7c3.87 0 7 3.13 7 7zM44.02 733.22c0 .55-.45 1-1 1s-1-.45-1-1 .45-1 1-1 1 .45 1 1z" fill="#FD6E5E"/>
        <path d="M247.21 37.27c0 3.04-2.46 5.5-5.5 5.5-3.03 0-5.5-2.46-5.5-5.5s2.47-5.5 5.5-5.5c3.04 0 5.5 2.46 5.5 5.5z" fill="#1E1E20"/>
        <path d="M285.2 618.96c0 2.48-2.01 4.5-4.5 4.5s-4.5-2.02-4.5-4.5c0-2.49 2.01-4.5 4.5-4.5s4.5 2.01 4.5 4.5z" fill="#2C343B"/>
        <path d="M28.7 851.96c0 1.38-1.12 2.5-2.5 2.5s-2.5-1.12-2.5-2.5 1.12-2.5 2.5-2.5 2.5 1.12 2.5 2.5z" fill="#FD6E5E"/>
        <path d="M322.97 940.16c0 1.1-.9 2-2 2-1.11 0-2-.9-2-2 0-1.11.89-2 2-2 1.1 0 2 .89 2 2z" fill="#C44740"/>
        <path d="M1127.26 136.96c0 2.76-2.23 5-5 5-2.76 0-5-2.24-5-5s2.24-5 5-5c2.77 0 5 2.24 5 5z" fill="#E6E2D2"/>
        <path d="M589.41 42.4c0 .55-.45 1-1 1s-1-.45-1-1 .45-1 1-1 1 .45 1 1zM279.91 554.99c0 .83-.67 1.5-1.5 1.5-.82 0-1.5-.67-1.5-1.5s.68-1.5 1.5-1.5c.83 0 1.5.67 1.5 1.5z" fill="#C44740"/>
        <path d="M780 72.22c0 2.21-1.79 4-4 4s-4-1.79-4-4 1.79-4 4-4 4 1.79 4 4z" fill="#FD6E5E"/>
        <path d="M325.01 568.42c0 2.49-2.02 4.5-4.5 4.5-2.49 0-4.5-2.01-4.5-4.5 0-2.48 2.01-4.5 4.5-4.5 2.48 0 4.5 2.02 4.5 4.5z" fill="#FFF"/>
        <path d="M14.31 806.73c0 1.94-1.57 3.5-3.5 3.5-1.94 0-3.5-1.56-3.5-3.5 0-1.93 1.56-3.5 3.5-3.5 1.93 0 3.5 1.57 3.5 3.5z" fill="#C44740"/>
        <path d="M355.91 582.53c0 3.59-2.91 6.5-6.5 6.5s-6.5-2.91-6.5-6.5 2.91-6.5 6.5-6.5 6.5 2.91 6.5 6.5z" fill="#E6E2D2"/>
        <path d="M580.76 17.85c0 1.38-1.12 2.5-2.5 2.5s-2.5-1.12-2.5-2.5 1.12-2.5 2.5-2.5 2.5 1.12 2.5 2.5z" fill="#2C343B"/>
        <path d="M743 27.56c0 3.04-2.46 5.5-5.5 5.5s-5.5-2.46-5.5-5.5c0-3.03 2.46-5.5 5.5-5.5s5.5 2.47 5.5 5.5z" fill="#C44740"/>
        <path d="M1070.56 117.98c0 3.31-2.69 6-6 6s-6-2.69-6-6 2.69-6 6-6 6 2.69 6 6z" fill="#2C343B"/>
        <path d="M230.69 777.25c0 3.31-2.69 6-6 6-3.32 0-6-2.69-6-6 0-3.32 2.68-6 6-6 3.31 0 6 2.68 6 6z" fill="#E6E2D2"/>
        <path d="M6.6 137.83c0 .55-.45 1-1 1s-1-.45-1-1 .45-1 1-1 1 .45 1 1z" fill="#FFF"/>
        <path
            d="M427.37 130.78c0 .83-.67 1.5-1.5 1.5s-1.5-.67-1.5-1.5.67-1.5 1.5-1.5 1.5.67 1.5 1.5zM487.97 114.75c0 3.86-3.14 7-7 7-3.87 0-7-3.14-7-7 0-3.87 3.13-7 7-7 3.86 0 7 3.13 7 7zM681.46 114.93c0 1.1-.9 2-2 2s-2-.9-2-2c0-1.11.9-2 2-2s2 .89 2 2z"
            fill="#E6E2D2"/>
        <path d="M1063.61 50.66c0 3.04-2.46 5.5-5.5 5.5s-5.5-2.46-5.5-5.5c0-3.03 2.46-5.5 5.5-5.5s5.5 2.47 5.5 5.5zM608.57 90.04c0 1.66-1.34 3-3 3s-3-1.34-3-3 1.34-3 3-3 3 1.34 3 3z" fill="#FFF"/>
        <path d="M167.81 877.63c0 2.48-2.02 4.5-4.5 4.5-2.49 0-4.5-2.02-4.5-4.5 0-2.49 2.01-4.5 4.5-4.5 2.48 0 4.5 2.01 4.5 4.5z" fill="#2C343B"/>
        <path d="M953.77 28.92c0 3.04-2.46 5.5-5.5 5.5-3.03 0-5.5-2.46-5.5-5.5s2.47-5.5 5.5-5.5c3.04 0 5.5 2.46 5.5 5.5z" fill="#FFF"/>
        <path d="M510.63 959.41c0 2.49-2.02 4.5-4.5 4.5-2.49 0-4.5-2.01-4.5-4.5 0-2.48 2.01-4.5 4.5-4.5 2.48 0 4.5 2.02 4.5 4.5z" fill="#C44740"/>
        <path d="M138.24 971.31c0 3.59-2.91 6.5-6.5 6.5s-6.5-2.91-6.5-6.5 2.91-6.5 6.5-6.5 6.5 2.91 6.5 6.5z" fill="#1E1E20"/>
        <path d="M1142.33 7.37c0 3.59-2.91 6.5-6.5 6.5s-6.5-2.91-6.5-6.5 2.91-6.5 6.5-6.5 6.5 2.91 6.5 6.5zM346.7 49.23c0 .27-.22.5-.5.5-.27 0-.5-.23-.5-.5 0-.28.23-.5.5-.5.28 0 .5.22.5.5z" fill="#FD6E5E"/>
        <path d="M454.39 121.64c0 3.31-2.68 6-6 6-3.31 0-6-2.69-6-6 0-3.32 2.69-6 6-6 3.32 0 6 2.68 6 6z" fill="#FFF"/>
        <path d="M167.18 890.26c0 3.86-3.14 7-7 7-3.87 0-7-3.14-7-7 0-3.87 3.13-7 7-7 3.86 0 7 3.13 7 7zM491.38 912.61c0 3.04-2.46 5.5-5.5 5.5-3.03 0-5.5-2.46-5.5-5.5 0-3.03 2.47-5.5 5.5-5.5 3.04 0 5.5 2.47 5.5 5.5z" fill="#1E1E20"/>
        <path d="M293.91 929.21c0 1.38-1.12 2.5-2.5 2.5s-2.5-1.12-2.5-2.5 1.12-2.5 2.5-2.5 2.5 1.12 2.5 2.5z" fill="#C44740"/>
        <path d="M281.83 560.51c0 2.21-1.79 4-4 4s-4-1.79-4-4 1.79-4 4-4 4 1.79 4 4z" fill="#1E1E20"/>
        <path d="M77.16 763.27c0 .55-.44 1-1 1-.55 0-1-.45-1-1 0-.56.45-1 1-1 .56 0 1 .44 1 1z" fill="#E6E2D2"/>
        <path d="M209.15 892.38c0 2.48-2.02 4.5-4.5 4.5-2.49 0-4.5-2.02-4.5-4.5 0-2.49 2.01-4.5 4.5-4.5 2.48 0 4.5 2.01 4.5 4.5z" fill="#1E1E20"/>
        <path d="M63.65 107.6c0 1.93-1.57 3.5-3.5 3.5s-3.5-1.57-3.5-3.5 1.57-3.5 3.5-3.5 3.5 1.57 3.5 3.5z" fill="#2C343B"/>
        <path d="M331.7 749.92c0 1.66-1.35 3-3 3-1.66 0-3-1.34-3-3s1.34-3 3-3c1.65 0 3 1.34 3 3z" fill="#1E1E20"/>
        <path d="M225.16 825.94c0 3.86-3.13 7-7 7-3.86 0-7-3.14-7-7 0-3.87 3.14-7 7-7 3.87 0 7 3.13 7 7z" fill="#E6E2D2"/>
        <path d="M36.3 850.46c0 3.59-2.91 6.5-6.5 6.5s-6.5-2.91-6.5-6.5 2.91-6.5 6.5-6.5 6.5 2.91 6.5 6.5z" fill="#FD6E5E"/>
        <path d="M530.31 194.78c0 1.93-1.56 3.5-3.5 3.5-1.93 0-3.5-1.57-3.5-3.5s1.57-3.5 3.5-3.5c1.94 0 3.5 1.57 3.5 3.5z" fill="#FFF"/>
        <path d="M371.77 440.93c0 3.31-2.68 6-6 6-3.31 0-6-2.69-6-6s2.69-6 6-6c3.32 0 6 2.69 6 6z" fill="#2C343B"/>
        <path
            d="M1223.05 79.48c0 .55-.45 1-1 1s-1-.45-1-1 .45-1 1-1 1 .45 1 1zM807.91 104.4c0 2.49-2.01 4.5-4.5 4.5-2.48 0-4.5-2.01-4.5-4.5 0-2.48 2.02-4.5 4.5-4.5 2.49 0 4.5 2.02 4.5 4.5zM8.98 89.73c0 1.93-1.57 3.5-3.5 3.5s-3.5-1.57-3.5-3.5 1.57-3.5 3.5-3.5 3.5 1.57 3.5 3.5z"
            fill="#E6E2D2"/>
        <path d="M572.47 80.16c0 .55-.45 1-1 1-.56 0-1-.45-1-1s.44-1 1-1c.55 0 1 .45 1 1z" fill="#FD6E5E"/>
        <path d="M317.14 43c0 .83-.67 1.5-1.5 1.5s-1.5-.67-1.5-1.5.67-1.5 1.5-1.5 1.5.67 1.5 1.5zM977.82 1.68c0 .28-.22.5-.5.5-.27 0-.5-.22-.5-.5s.23-.5.5-.5c.28 0 .5.22.5.5z" fill="#E6E2D2"/>
        <path d="M106.2 765.99c0 2.49-2.01 4.5-4.5 4.5-2.48 0-4.5-2.01-4.5-4.5 0-2.48 2.02-4.5 4.5-4.5 2.49 0 4.5 2.02 4.5 4.5z" fill="#FFF"/>
        <path d="M662.73 82.33c0 1.93-1.56 3.5-3.5 3.5-1.93 0-3.5-1.57-3.5-3.5s1.57-3.5 3.5-3.5c1.94 0 3.5 1.57 3.5 3.5zM1165.56 109.37c0 .28-.23.5-.5.5-.28 0-.5-.22-.5-.5s.22-.5.5-.5c.27 0 .5.22.5.5z" fill="#FD6E5E"/>
        <path d="M8.02 43.51c0 2.21-1.8 4-4 4-2.21 0-4-1.79-4-4s1.79-4 4-4c2.2 0 4 1.79 4 4z" fill="#FFF"/>
        <path d="M124.03 693.55c0 1.1-.9 2-2 2-1.11 0-2-.9-2-2 0-1.11.89-2 2-2 1.1 0 2 .89 2 2z" fill="#E6E2D2"/>
        <path d="M46.74 823.71c0 2.48-2.01 4.5-4.5 4.5-2.48 0-4.5-2.02-4.5-4.5 0-2.49 2.02-4.5 4.5-4.5 2.49 0 4.5 2.01 4.5 4.5z" fill="#C44740"/>
        <path d="M514.14 130.75c0 3.31-2.68 6-6 6-3.31 0-6-2.69-6-6 0-3.32 2.69-6 6-6 3.32 0 6 2.68 6 6z" fill="#E6E2D2"/>
        <path d="M1168.65 36.45c0 1.93-1.57 3.5-3.5 3.5-1.94 0-3.5-1.57-3.5-3.5 0-1.94 1.56-3.5 3.5-3.5 1.93 0 3.5 1.56 3.5 3.5z" fill="#C44740"/>
        <path d="M436.12 997.03c0 3.87-3.14 7-7 7-3.87 0-7-3.13-7-7s3.13-7 7-7c3.86 0 7 3.13 7 7z" fill="#FFF"/>
        <path d="M520 126.22c0 3.87-3.13 7-7 7-3.86 0-7-3.13-7-7 0-3.86 3.14-7 7-7 3.87 0 7 3.14 7 7z" fill="#C44740"/>
        <path d="M1264.37 295.42c0 .28-.23.5-.5.5-.28 0-.5-.22-.5-.5 0-.27.22-.5.5-.5.27 0 .5.23.5.5z" fill="#FD6E5E"/>
        <path d="M213.13 1007.46c0 1.38-1.12 2.5-2.5 2.5s-2.5-1.12-2.5-2.5 1.12-2.5 2.5-2.5 2.5 1.12 2.5 2.5z" fill="#1E1E20"/>
        <path d="M767.06 23.77c0 1.11-.89 2-2 2-1.1 0-2-.89-2-2 0-1.1.9-2 2-2 1.11 0 2 .9 2 2z" fill="#E6E2D2"/>
        <path d="M1090.05 64.72c0 2.21-1.79 4-4 4s-4-1.79-4-4 1.79-4 4-4 4 1.79 4 4z" fill="#C44740"/>
        <path d="M950.66 47.85c0 2.76-2.24 5-5 5s-5-2.24-5-5 2.24-5 5-5 5 2.24 5 5z" fill="#E6E2D2"/>
        <path d="M558.6 33.16c0 1.38-1.12 2.5-2.5 2.5s-2.5-1.12-2.5-2.5 1.12-2.5 2.5-2.5 2.5 1.12 2.5 2.5zM686.46 92.14c0 1.93-1.57 3.5-3.5 3.5s-3.5-1.57-3.5-3.5c0-1.94 1.57-3.5 3.5-3.5s3.5 1.56 3.5 3.5z" fill="#FD6E5E"/>
        <path d="M364.69 794.86c0 .55-.44 1-1 1-.55 0-1-.45-1-1s.45-1 1-1c.56 0 1 .45 1 1z" fill="#2C343B"/>
        <path d="M384.74 12.83c0 1.66-1.34 3-3 3-1.65 0-3-1.34-3-3s1.35-3 3-3c1.66 0 3 1.34 3 3z" fill="#E6E2D2"/>
        <path d="M502.09 37.58c0 2.48-2.02 4.5-4.5 4.5-2.49 0-4.5-2.02-4.5-4.5 0-2.49 2.01-4.5 4.5-4.5 2.48 0 4.5 2.01 4.5 4.5z" fill="#C44740"/>
        <path d="M1126.04 29.7c0 1.38-1.11 2.5-2.5 2.5-1.38 0-2.5-1.12-2.5-2.5s1.12-2.5 2.5-2.5c1.39 0 2.5 1.12 2.5 2.5zM70.43 664.32c0 3.04-2.46 5.5-5.5 5.5s-5.5-2.46-5.5-5.5 2.46-5.5 5.5-5.5 5.5 2.46 5.5 5.5z" fill="#2C343B"/>
        <path d="M797.16 102.47c0 2.49-2.01 4.5-4.5 4.5-2.48 0-4.5-2.01-4.5-4.5 0-2.48 2.02-4.5 4.5-4.5 2.49 0 4.5 2.02 4.5 4.5z" fill="#C44740"/>
        <path d="M532.5 999.44c0 2.76-2.24 5-5 5s-5-2.24-5-5 2.24-5 5-5 5 2.24 5 5z" fill="#E6E2D2"/>
        <path d="M216.19 823.71c0 3.04-2.46 5.5-5.5 5.5-3.03 0-5.5-2.46-5.5-5.5s2.47-5.5 5.5-5.5c3.04 0 5.5 2.46 5.5 5.5z" fill="#2C343B"/>
        <path d="M155.83 743.66c0 .27-.23.5-.5.5-.28 0-.5-.23-.5-.5 0-.28.22-.5.5-.5.27 0 .5.22.5.5z" fill="#FD6E5E"/>
        <path d="M113.71 916.02c0 1.11-.9 2-2 2-1.11 0-2-.89-2-2 0-1.1.89-2 2-2 1.1 0 2 .9 2 2z" fill="#FFF"/>
        <path d="M1249.49 147.76c0 3.59-2.91 6.5-6.5 6.5s-6.5-2.91-6.5-6.5 2.91-6.5 6.5-6.5 6.5 2.91 6.5 6.5z" fill="#2C343B"/>
        <path d="M497.96 97.78c0 3.87-3.14 7-7 7-3.87 0-7-3.13-7-7 0-3.86 3.13-7 7-7 3.86 0 7 3.14 7 7z" fill="#1E1E20"/>
        <path d="M389.29 1007.31c0 3.87-3.14 7-7 7-3.87 0-7-3.13-7-7 0-3.86 3.13-7 7-7 3.86 0 7 3.14 7 7z" fill="#E6E2D2"/>
        <path d="M238.68 35.76c0 .27-.23.5-.5.5-.28 0-.5-.23-.5-.5 0-.28.22-.5.5-.5.27 0 .5.22.5.5z" fill="#2C343B"/>
        <path d="M376.49 68.96c0 .56-.44 1-1 1-.55 0-1-.44-1-1 0-.55.45-1 1-1 .56 0 1 .45 1 1zM351.97 855.18c0 3.31-2.68 6-6 6-3.31 0-6-2.69-6-6 0-3.32 2.69-6 6-6 3.32 0 6 2.68 6 6z" fill="#E6E2D2"/>
        <path d="M633.71 19.62c0 2.76-2.24 5-5 5s-5-2.24-5-5 2.24-5 5-5 5 2.24 5 5z" fill="#2C343B"/>
        <path d="M515.03 992.85c0 .55-.44 1-1 1-.55 0-1-.45-1-1s.45-1 1-1c.56 0 1 .45 1 1z" fill="#FD6E5E"/>
        <path d="M160.75 993.84c0 1.93-1.57 3.5-3.5 3.5s-3.5-1.57-3.5-3.5c0-1.94 1.57-3.5 3.5-3.5s3.5 1.56 3.5 3.5z" fill="#1E1E20"/>
        <path d="M287.3 767.34c0 3.86-3.13 7-7 7-3.86 0-7-3.14-7-7 0-3.87 3.14-7 7-7 3.87 0 7 3.13 7 7z" fill="#FFF"/>
        <path d="M541.21 248.91c0 3.59-2.91 6.5-6.5 6.5s-6.5-2.91-6.5-6.5 2.91-6.5 6.5-6.5 6.5 2.91 6.5 6.5z" fill="#FD6E5E"/>
        <path d="M108.7 786.12c0 1.11-.9 2-2 2-1.11 0-2-.89-2-2 0-1.1.89-2 2-2 1.1 0 2 .9 2 2z" fill="#FFF"/>
        <path d="M510.68 64.27c0 3.59-2.91 6.5-6.5 6.5s-6.5-2.91-6.5-6.5 2.91-6.5 6.5-6.5 6.5 2.91 6.5 6.5zM742.74 16.54c0 1.93-1.57 3.5-3.5 3.5-1.94 0-3.5-1.57-3.5-3.5s1.56-3.5 3.5-3.5c1.93 0 3.5 1.57 3.5 3.5z" fill="#2C343B"/>
        <path d="M1274.98 119.75c0 1.66-1.34 3-3 3s-3-1.34-3-3 1.34-3 3-3 3 1.34 3 3zM206.99 909.07c0 3.87-3.13 7-7 7s-7-3.13-7-7 3.13-7 7-7 7 3.13 7 7z" fill="#FFF"/>
        <path d="M350.04 781.31c0 3.59-2.91 6.5-6.5 6.5s-6.5-2.91-6.5-6.5 2.91-6.5 6.5-6.5 6.5 2.91 6.5 6.5z" fill="#E6E2D2"/>
        <path d="M496.5 27.59c0 1.38-1.12 2.5-2.5 2.5s-2.5-1.12-2.5-2.5c0-1.39 1.12-2.5 2.5-2.5s2.5 1.11 2.5 2.5z" fill="#C44740"/>
    </g>
</svg>
