<svg width="1306" height="1023" viewBox="0 0 1306 1023" xmlns="http://www.w3.org/2000/svg">
    <title>
        large
    </title>
    <g fill="none" fill-rule="evenodd">
        <path d="M845.66 28.24c0 15.46-12.54 28-28 28-15.47 0-28-12.54-28-28 0-15.47 12.53-28 28-28 15.46 0 28 12.53 28 28z" fill-opacity=".847" fill="#C44740"/>
        <path d="M410.1 613.28c0 20.15-16.34 36.5-36.5 36.5s-36.5-16.35-36.5-36.5c0-20.16 16.34-36.5 36.5-36.5s36.5 16.34 36.5 36.5z" fill-opacity=".612" fill="#E6E2D2"/>
        <path d="M181.72 578.17c0 16.02-12.98 29-29 29-16.01 0-29-12.98-29-29 0-16.01 12.99-29 29-29 16.02 0 29 12.99 29 29z" fill-opacity=".953" fill="#FD6E5E"/>
        <path d="M772.89 101.29c0 17.12-13.87 31-31 31-17.12 0-31-13.88-31-31 0-17.12 13.88-31 31-31 17.13 0 31 13.88 31 31z" fill-opacity=".824" fill="#FFF"/>
        <path d="M67.38 694.19c0 17.4-14.1 31.5-31.5 31.5s-31.5-14.1-31.5-31.5c0-17.39 14.1-31.5 31.5-31.5s31.5 14.11 31.5 31.5z" fill-opacity=".824" fill="#E6E2D2"/>
        <path d="M180.68 715.59c0 17.4-14.11 31.5-31.5 31.5-17.4 0-31.5-14.1-31.5-31.5s14.1-31.5 31.5-31.5c17.39 0 31.5 14.1 31.5 31.5z" fill-opacity=".816" fill="#FFF"/>
        <path d="M451.97 117.04c0 15.18-12.31 27.5-27.5 27.5s-27.5-12.32-27.5-27.5c0-15.19 12.31-27.5 27.5-27.5s27.5 12.31 27.5 27.5z" fill-opacity=".624" fill="#52616D"/>
        <path d="M1305.25 83.13c0 16.57-13.43 30-30 30s-30-13.43-30-30 13.43-30 30-30 30 13.43 30 30z" fill-opacity=".686" fill="#1E1E20"/>
        <path d="M77.87 617.48c0 19.61-15.89 35.5-35.5 35.5s-35.5-15.89-35.5-35.5 15.89-35.5 35.5-35.5 35.5 15.89 35.5 35.5z" fill-opacity=".675" fill="#E6E2D2"/>
        <path d="M182.49 928.31c0 16.01-12.98 28.997-29 28.997-16.01 0-29-12.987-29-28.997 0-16.02 12.99-29 29-29 16.02 0 29 12.98 29 29z" fill-opacity=".635" fill="#FD6E5E"/>
        <path d="M463.05 337.71c0 18.5-15 33.5-33.5 33.5s-33.5-15-33.5-33.5 15-33.5 33.5-33.5 33.5 15 33.5 33.5z" fill-opacity=".596" fill="#E6E2D2"/>
        <path d="M1132.72 62.3c0 14.63-11.86 26.5-26.5 26.5-14.63 0-26.5-11.87-26.5-26.5 0-14.64 11.87-26.5 26.5-26.5 14.64 0 26.5 11.86 26.5 26.5z" fill-opacity=".647" fill="#52616D"/>
        <path d="M63.7 990.91c0 17.4-14.11 31.5-31.5 31.5-17.4 0-31.5-14.1-31.5-31.5s14.1-31.5 31.5-31.5c17.39 0 31.5 14.1 31.5 31.5z" fill-opacity=".667" fill="#E6E2D2"/>
        <path d="M186.54 85.55c0 18.78-15.23 34-34 34-18.78 0-34-15.22-34-34s15.22-34 34-34c18.77 0 34 15.22 34 34z" fill-opacity=".89" fill="#FFF"/>
        <path d="M1269.57 154.63c0 20.43-16.57 37-37 37-20.44 0-37-16.57-37-37 0-20.44 16.56-37 37-37 20.43 0 37 16.56 37 37z" fill-opacity=".612" fill="#52616D"/>
        <path d="M386.52 923.46c0 14.35-11.64 26-26 26-14.35 0-26-11.65-26-26 0-14.36 11.65-26 26-26 14.36 0 26 11.64 26 26z" fill-opacity=".675" fill="#1E1E20"/>
        <path d="M193.7 796.74c0 13.8-11.2 25-25 25-13.81 0-25-11.2-25-25 0-13.81 11.19-25 25-25 13.8 0 25 11.19 25 25z" fill-opacity=".604" fill="#FFF"/>
        <path d="M359.79 758.07c0 15.47-12.54 28-28 28s-28-12.53-28-28c0-15.46 12.54-28 28-28s28 12.54 28 28z" fill-opacity=".992" fill="#1E1E20"/>
        <path d="M477.57 129.09c0 19.88-16.12 36-36 36s-36-16.12-36-36 16.12-36 36-36 36 16.12 36 36z" fill-opacity=".933" fill="#C44740"/>
        <path d="M564.66 28.73c0 15.46-12.53 28-28 28-15.46 0-28-12.54-28-28s12.54-28 28-28c15.47 0 28 12.54 28 28z" fill-opacity=".953" fill="#52616D"/>
    </g>
</svg>
