<svg width="984" height="982" viewBox="0 0 984 982" xmlns="http://www.w3.org/2000/svg">
    <title>
        render1
    </title>
    <g fill="none" fill-rule="evenodd" opacity=".645">
        <path fill-opacity=".882" fill="#FFF" d="M910 472v32h-68v-32"/>
        <path fill-opacity=".922" fill="#FD6E5E" d="M928.31 540.15l-5.63 35.55-87.9-13.92 5.63-35.55"/>
        <path fill-opacity=".906" fill="#FFF" d="M895.2 604.26L885 635.64l-65.62-21.32 10.2-31.38"/>
        <path fill-opacity=".82" fill="#FD6E5E" d="M873.1 662.69l-19.06 37.42-60.59-30.87 19.06-37.42"/>
        <path fill-opacity=".855" fill="#E6E2D2" d="M869.45 745.18l-21.75 29.93-84.95-61.72 21.75-29.93"/>
        <path fill-opacity=".827" fill="#52616D" d="M822.35 795.95l-30.4 30.4-70.01-70 30.41-30.41"/>
        <path fill-opacity=".906" fill="#52616D" d="M770.08 853.69l-26.7 19.39-62.3-85.75 26.7-19.4"/>
        <path fill-opacity=".698" fill="#52616D" d="M685.71 843.13l-32.97 16.8-22.7-44.55 32.97-16.8"/>
        <path fill-opacity=".773" fill="#FD6E5E" d="M627.29 878.85l-29.48 9.58-17.92-55.16 29.48-9.58"/>
        <path fill-opacity=".69" fill="#E6E2D2" d="M583.32 974.45l-43.46 6.88-21.59-136.3 43.46-6.88"/>
        <path fill-opacity=".89" fill="#FFF" d="M499 917h-30v-71h30"/>
        <path fill-opacity=".671" fill="#52616D" d="M432.9 919.32L399.32 914l11.89-75.07 33.58 5.32"/>
        <path fill-opacity=".78" fill="#FD6E5E" d="M349.37 957.37l-32.34-10.51 40.17-123.64 32.34 10.51"/>
        <path fill-opacity=".973" fill="#E6E2D2" d="M283.02 923.19l-32.97-16.8 54.94-107.81 32.97 16.8"/>
        <path fill-opacity=".953" fill="#FFF" d="M235.6 858.81l-27.51-19.98 51.73-71.19 27.51 19.98"/>
        <path fill-opacity=".608" fill="#FFF" d="M188.43 809.03l-25.46-25.46 55.16-55.15 25.45 25.45"/>
        <path fill-opacity=".671" fill="#E6E2D2" d="M121.84 772.13l-19.98-27.5 82.52-59.96 19.98 27.51"/>
        <path fill-opacity=".929" fill="#52616D" d="M93.21 705.64l-14.98-29.41 79.3-40.4 14.98 29.4"/>
        <path fill-opacity=".976" fill="#1E1E20" d="M90.74 636.81l-12.36-38.04 58.96-19.16 12.36 38.04"/>
        <path fill-opacity=".729" fill="#52616D" d="M48.2 574.74l-5.47-34.57 84.94-13.45 5.48 34.57"/>
        <path fill-opacity=".945" fill="#FD6E5E" d="M7 505.5v-35h119v35"/>
        <path fill-opacity=".706" fill="#FFF" d="M.7 432.71l6.57-41.48 126.42 20.02-6.57 41.49"/>
        <path fill-opacity=".588" fill="#FFF" d="M33.03 361.45l11.75-36.14 104.61 33.99-11.74 36.14"/>
        <path fill-opacity=".694" fill="#1E1E20" d="M73.55 297.94l15.43-30.29 83.76 42.67-15.44 30.3"/>
        <path fill-opacity=".984" fill="#1E1E20" d="M77 214.55l21.16-29.13 106.79 77.59-21.16 29.13"/>
        <path fill-opacity=".976" fill="#FD6E5E" d="M140.35 175.46l31.11-31.11 74.95 74.95-31.11 31.11"/>
        <path fill-opacity=".973" fill="#1E1E20" d="M186.68 111.94l31.55-22.92 71.12 97.89-31.55 22.92"/>
        <path fill-opacity=".957" fill="#E6E2D2" d="M255.93 77.84l30.3-15.44 50.39 98.9-30.3 15.44"/>
        <path fill-opacity=".69" fill="#E6E2D2" d="M337.07 97.28l36.14-11.74 18.23 56.11-36.14 11.74"/>
        <path fill-opacity=".702" fill="#C44740" d="M391.79 36.87l40.5-6.41 15.95 100.74-40.49 6.41"/>
        <path fill-opacity=".82" fill="#FD6E5E" d="M462 46h44v84h-44"/>
        <path fill-opacity=".784" fill="#E6E2D2" d="M544.51.46l32.6 5.17-20.81 131.36-32.59-5.16"/>
        <path fill-opacity=".824" fill="#52616D" d="M606.72 53.67l33.29 10.81-28.74 88.45-33.29-10.82"/>
        <path fill-opacity=".608" fill="#FFF" d="M676.3 76.45l27.62 14.07-43.58 85.54-27.62-14.08"/>
        <path fill-opacity=".686" fill="#1E1E20" d="M711.93 139.4l33.17 24.1-34.09 46.92-33.17-24.1"/>
        <path fill-opacity=".608" fill="#E6E2D2" d="M775.33 172.63l24.04 24.04-50.2 50.21-24.05-24.04"/>
        <path fill-opacity=".686" fill="#C44740" d="M837.26 210.33l19.98 27.51-73.62 53.49-19.98-27.51"/>
        <path fill-opacity=".816" fill="#52616D" d="M858.49 273.62l19.07 37.42-65.05 33.14-19.06-37.42"/>
        <path fill-opacity=".933" fill="#FD6E5E" d="M903.25 331.8l11.74 36.14-84.64 27.5-11.74-36.14"/>
        <path fill-opacity=".89" fill="#FFF" d="M978.3 393.51l5.01 31.61L840.1 447.8l-5.01-31.61"/>
    </g>
</svg>
