<svg width="406" height="410" viewBox="0 0 406 410" xmlns="http://www.w3.org/2000/svg">
    <title>
        render1
    </title>
    <g fill="none" fill-rule="evenodd" opacity=".602">
        <path fill-opacity=".902" fill="#E6E2D2" d="M396.71 252.17l-10.458 32.183-21.763-7.076 10.458-32.183"/>
        <path fill-opacity=".776" fill="#C44740" d="M387.705 318.486l-20.48 28.183-32.2-23.407 20.478-28.172"/>
        <path fill-opacity=".859" fill="#C44740" d="M346.497 366.67l-33.007 23.984-22.818-31.396 33.007-23.983"/>
        <path fill-opacity=".745" fill="#2C343B" d="M287.22 388.774l-40.69 13.215-7.694-23.656 40.7-13.225"/>
        <path fill-opacity=".906" fill="#1E1E20" d="M222.407 410h-32.84v-29.854h32.84"/>
        <path fill-opacity=".761" fill="#2C343B" d="M162.422 396.824l-32.182-10.46 6.458-19.872 32.182 10.46"/>
        <path fill-opacity=".784" fill="#FFF" d="M107.442 377.48L75.24 354.082l13.454-18.52 32.202 23.406"/>
        <path fill-opacity=".933" fill="#FD6E5E" d="M60.334 335.95l-21.057-28.977 16.907-12.29L77.24 323.67"/>
        <path fill-opacity=".655" fill="#C44740" d="M32.68 279.994l-9.225-28.39 14.19-4.62 9.225 28.403"/>
        <path fill-opacity=".894" fill="#FFF" d="M0 225.898v-35.825h33.834v35.825"/>
        <path fill-opacity=".953" fill="#FD6E5E" d="M17.156 164.418l10.458-32.183 19.873 6.458-10.46 32.183"/>
        <path fill-opacity=".765" fill="#E6E2D2" d="M34.083 107.685l23.395-32.203 20.937 15.206L55.01 122.89"/>
        <path fill-opacity=".647" fill="#1E1E20" d="M69.07 49.15l28.172-20.47 21.644 29.785-28.172 20.48"/>
        <path fill-opacity=".616" fill="#2C343B" d="M122.03 12.39L158.94.398l12.308 37.855-36.918 11.992"/>
        <path fill-opacity=".773" fill="#1E1E20" d="M188.573 11.942h34.83v23.883h-34.83"/>
        <path fill-opacity=".776" fill="#FFF" d="M252.44 5.433l35.017 11.385-10.767 33.118-35.008-11.374"/>
        <path fill-opacity=".745" fill="#E6E2D2" d="M305.41 44.045l25.763 18.72-11.116 15.294-25.763-18.71"/>
        <path fill-opacity=".702" fill="#E6E2D2" d="M358.956 76.547l19.305 26.57-23.344 16.957-19.305-26.57"/>
        <path fill-opacity=".627" fill="#2C343B" d="M395.875 129.02l10.15 31.228-31.237 10.15-10.15-31.227"/>
    </g>
</svg>
