<svg width="474" height="485" viewBox="0 0 474 485" xmlns="http://www.w3.org/2000/svg">
    <title>
        render7
    </title>
    <g fill="none" fill-rule="evenodd" opacity=".854">
        <path fill="#E6E2D2" d="M30.71 150.404l.422-.906 41.69 19.44-.423.907M33.83 141.698l.46-.89 41.728 21.632-.455.88"/>
        <path fill="#1E1E20" d="M33 130.608l.495-.873 46 26.338-.505.868"/>
        <path fill="#E6E2D2" d="M37.842 122.472l.532-.856 44.843 28.248-.527.847"/>
        <path fill="#FFF" d="M61.953 127.602l.56-.82 24.695 17.032-.564.83"/>
        <path fill="#E6E2D2" d="M48.52 106.84l.604-.8 42.326 31.896-.605.8"/>
        <path fill="#FD6E5E" d="M65.156 108.264l.637-.774 30.14 24.758-.636.773"/>
        <path fill="#E6E2D2" d="M64.942 96.16l.668-.75 35.032 31.332-.665.738M56.143 74.755l.7-.72 48.74 47.41-.696.71"/>
        <path fill="#FD6E5E" d="M84.6 90.155l.73-.687 25.42 26.882-.728.687"/>
        <path fill="#1E1E20" d="M90.435 83.464l.748-.656 24.937 28.676-.76.66"/>
        <path fill="#FD6E5E" d="M90.952 69.957l.784-.617 29.944 37.51-.775.62"/>
        <path fill="#C44740" d="M87.65 49.78l.806-.594 38.982 53.265-.803.586"/>
        <path fill="#2C343B" d="M108.07 62.282l.83-.55 24.473 36.557-.835.558"/>
        <path fill="#1E1E20" d="M112.578 52.235l.853-.528 26.046 42.675-.854.53M115.775 38.754l.877-.485 29.09 52.47-.877.484"/>
        <path fill="#C44740" d="M138.724 62.773l.892-.445L152.15 87.36l-.895.455"/>
        <path fill="#FD6E5E" d="M132.778 29.028l.91-.414 25.008 55.642-.91.414"/>
        <path fill="#C44740" d="M152.186 51.153l.925-.374 12.26 30.64-.934.37"/>
        <path fill="#FFF" d="M160.574 49.018l.948-.33 10.627 30.19-.95.33"/>
        <path fill="#E6E2D2" d="M168.138 44.39l.954-.293 9.94 32.517-.955.294"/>
        <path fill="#FD6E5E" d="M171.422 22.63l.97-.254 13.618 52.262-.97.255"/>
        <path fill="#2C343B" d="M187.637 52.645l.983-.214 4.43 20.526-.97.21"/>
        <path fill="#C44740" d="M195.1 48.093l.984-.17 4.087 23.653-.983.17"/>
        <path fill="#E6E2D2" d="M203.763 50.786l1-.13 2.567 19.834-.99.134"/>
        <path fill="#FD6E5E" d="M209.176 19.99l1-.087 4.358 49.81-1 .084"/>
        <path fill="#2C343B" d="M218.048 9.34l.996-.054 2.72 59.946-1 .04"/>
        <path fill="#E6E2D2" d="M227.838 20.05l1.002.005.17 48.993-.996.01M237.514 10.186l1.008.04-2.268 58.955-1-.034"/>
        <path fill="#C44740" d="M244.815 40.623l1 .08-2.324 28.906-1-.08"/>
        <path fill="#1E1E20" d="M258.238.74l.992.12-8.535 69.483-.992-.12M265.374 19.912l.984.16-8.485 51.3-.993-.164"/>
        <path fill="#FFF" d="M278.33 3.984l.975.202-14.31 68.522-.985-.205"/>
        <path fill="#E6E2D2" d="M283.103 26.59l.968.242-12.02 47.5-.968-.242"/>
        <path fill="#2C343B" d="M299.22 5.064l.96.283-21.142 70.92-.957-.292"/>
        <path fill="#FFF" d="M298.34 39.39l.945.318L285.94 78.48l-.95-.332"/>
        <path fill="#FD6E5E" d="M299.834 60.134l.936.36-8.03 20.484-.932-.368"/>
        <path fill="#1E1E20" d="M326.356 20.223l.915.404-27.84 63.14-.916-.405"/>
        <path fill="#2C343B" d="M333.35 28.957l.898.44-28.258 57.43-.898-.442"/>
        <path fill="#E6E2D2" d="M324.474 65.974l.88.477-12.93 23.708-.88-.477M341.55 53.822l.855.51-23.694 39.43-.85-.518"/>
        <path fill="#2C343B" d="M338.877 74.533l.834.554-14.867 22.538-.834-.554"/>
        <path fill="#FD6E5E" d="M350.47 72.766l.82.582-20.474 28.387-.822-.582"/>
        <path fill="#FFF" d="M346.323 92.117l.79.623-10.52 13.355-.78-.618M380.49 64.488l.757.65-39.05 45.555-.757-.65"/>
        <path fill="#E6E2D2" d="M392.558 65.845l.73.683-45.69 49.002-.73-.683"/>
        <path fill="#C44740" d="M366.333 105.828l.7.702-14.242 14.047-.694-.71"/>
        <path fill="#FFF" d="M386.732 98.238l.673.733-29.634 26.876-.668-.743"/>
        <path fill="#2C343B" d="M385.7 110.7l.642.774-23.813 19.834-.65-.765"/>
        <path fill="#C44740" d="M403.78 107.633l.607.802-37.34 28.543-.61-.802"/>
        <path fill="#FFF" d="M419.08 108.16l.577.82-48.33 33.845-.58-.82"/>
        <path fill="#C44740" d="M407.672 126.992l.547.84-32.86 21.012-.546-.84"/>
        <path fill="#E6E2D2" d="M431.355 123.482l.502.863-52.727 30.68-.502-.862"/>
        <path fill="#FD6E5E" d="M409.6 146.02l.47.89-27.42 14.458-.472-.882"/>
        <path fill="#2C343B" d="M412.564 154.077l.427.905-27.103 12.86-.427-.905"/>
        <path fill="#FFF" d="M450.144 147.36l.387.92-61.67 26.18-.388-.92"/>
        <path fill="#E6E2D2" d="M426.765 166.878l.356.938-35.572 13.37-.347-.935M440.2 171.763l.306.95-46.548 15.3-.307-.948"/>
        <path fill="#2C343B" d="M438.14 182.002l.276.967-42.34 11.978-.268-.963"/>
        <path fill="#C44740" d="M412.26 197.508l.233.97-14.588 3.48-.232-.97"/>
        <path fill="#FFF" d="M450.287 198.138l.193.983-51.044 9.918-.192-.983M426.23 211.304l.143.994-25.7 3.883-.156-.988"/>
        <path fill="#2C343B" d="M473.075 214.6l.103.986-71.574 7.78-.112-.99"/>
        <path fill="#FFF" d="M432.1 227.602l.068.992-29.937 1.994-.063-1"/>
        <path fill="#2C343B" d="M422.533 236.337l.02 1.002-19.99.487-.028-1.006"/>
        <path fill="#E6E2D2" d="M451.597 244.925l-.013.998-48.998-.858.022-.994"/>
        <path fill="#FD6E5E" d="M443.293 253.74l-.058 1-40.926-2.433.057-1"/>
        <path fill="#E6E2D2" d="M424.71 260.866l-.097.99-22.884-2.317.1-1.002"/>
        <path fill="#FFF" d="M432.66 270.3l-.144.99-31.67-4.56.144-.993M464.718 285.027l-.183.985-64.88-12.136.193-.98"/>
        <path fill="#E6E2D2" d="M422.766 285.623l-.23.964-24.356-5.62.224-.977M460.3 304.56l-.27.956-63.626-17.522.264-.97M461.29 315.382l-.31.948-66.646-21.39.3-.952M412.96 308.448l-.336.935-20.653-7.6.347-.93"/>
        <path fill="#FD6E5E" d="M417.41 319.14l-.387.923-27.695-11.524.387-.924"/>
        <path fill="#2C343B" d="M437.58 337.924l-.422.907-50.753-23.666.422-.906"/>
        <path fill="#C44740" d="M444.927 352.528l-.46.89-61.258-31.756.454-.88"/>
        <path fill="#E6E2D2" d="M411.474 345.05l-.496.87-31.246-17.89.504-.87"/>
        <path fill="#1E1E20" d="M413.764 356.842l-.527.846-37.227-23.45.527-.846"/>
        <path fill="#FD6E5E" d="M385.755 348.548l-.572.825-13.164-9.085.562-.83"/>
        <path fill="#FFF" d="M400.32 369.44l-.595.804-31.948-24.077.605-.8"/>
        <path fill="#FD6E5E" d="M418.793 396.15l-.636.773-54.864-45.07.637-.772M375.653 371.278l-.67.747-16.398-14.664.664-.738M387.315 394.017l-.696.712-32.977-32.072.696-.712"/>
        <path fill="#C44740" d="M380.126 399.756l-.728.687-30.922-32.69.73-.687"/>
        <path fill="#1E1E20" d="M371.424 403.654l-.76.66-27.557-31.695.76-.662"/>
        <path fill="#E6E2D2" d="M352.052 393.826l-.784.617-13.72-17.19.774-.62"/>
        <path fill="#2C343B" d="M355.037 411.725l-.807.594-22.44-30.668.8-.586"/>
        <path fill="#E6E2D2" d="M341.703 407.69l-.835.56-15.014-22.436.834-.56"/>
        <path fill="#1E1E20" d="M354.47 444.672l-.853.53-33.866-55.482.854-.528"/>
        <path fill="#C44740" d="M321.63 405.99l-.867.488-7.28-13.115.878-.485"/>
        <path fill="#1E1E20" d="M335.29 450.833l-.906.45-27.308-54.54.896-.455"/>
        <path fill="#FD6E5E" d="M330.136 463.28l-.91.415-28.695-63.85.91-.413"/>
        <path fill="#E6E2D2" d="M310.013 440.37l-.925.375-15.23-38.063.933-.37M307.955 461.49l-.95.33-19.928-56.595.95-.33"/>
        <path fill="#1E1E20" d="M299.278 466.49l-.954.295-18.128-59.297.954-.294"/>
        <path fill="#FFF" d="M283.77 445.986l-.968.255-9.585-36.776.968-.255"/>
        <path fill="#E6E2D2" d="M272.86 437.323l-.983.215-5.7-26.392.97-.21"/>
        <path fill="#C44740" d="M270.6 473.453l-.985.17-10.56-61.097.985-.17"/>
        <path fill="#FD6E5E" d="M260.358 470.995l-.99.134-7.472-57.518.99-.134"/>
        <path fill="#FFF" d="M247 429.248l-1 .085-1.308-14.942 1-.085"/>
        <path fill="#E6E2D2" d="M240.004 448.793l-1 .04-1.542-33.963 1-.04M231.414 471.047l-1.006.005-.193-55.997.998-.01"/>
        <path fill="#1E1E20" d="M223.012 439.942l-.998-.035.96-24.986.998.037"/>
        <path fill="#FFF" d="M214.813 438.502l-.996-.09 1.92-23.92 1 .08"/>
        <path fill="#FD6E5E" d="M200.868 484.355l-.992-.12 8.655-70.476.993.12"/>
        <path fill="#FFF" d="M195.484 454.326l-.984-.16 6.854-41.437.993.165"/>
        <path fill="#C44740" d="M180.49 482.08l-.976-.202 14.717-70.484.986.206"/>
        <path fill="#E6E2D2" d="M172.687 471.082l-.968-.242 15.456-61.07.97.242"/>
        <path fill="#2C343B" d="M170.29 444.54l-.962-.28 10.86-36.424.957.292M158.615 451.334l-.953-.323 15.626-45.388.948.332"/>
        <path fill="#1E1E20" d="M146.256 457.488l-.932-.37 21.163-53.994.93.368"/>
        <path fill="#FFF" d="M146.192 433.68l-.915-.405 14.52-32.94.916.406"/>
        <path fill="#2C343B" d="M127.64 451.554l-.898-.44 26.494-53.838.898.44"/>
        <path fill="#FFF" d="M135.715 416.37l-.88-.476 11.967-21.95.88.478"/>
        <path fill="#1E1E20" d="M130.035 409.717l-.85-.52 11.33-18.857.852.52"/>
        <path fill="#E6E2D2" d="M114.302 418.754l-.838-.545 20.92-31.733.834.554M105.24 416.206l-.808-.587 23.98-33.252.82.58"/>
        <path fill="#C44740" d="M86.313 425.773l-.79-.622 37.11-47.143.78.62M96.96 398.353l-.757-.65 20.828-24.294.757.65"/>
        <path fill="#E6E2D2" d="M99.402 383.15l-.73-.68 12.957-13.897.73.682"/>
        <path fill="#FFF" d="M85.065 386l-.708-.706 22.078-21.77.695.71"/>
        <path fill="#FD6E5E" d="M82.868 376.468l-.678-.747 19.265-17.463.67.742M68.913 377.242l-.634-.77 28.418-23.677.638.76M68.156 366.75l-.603-.79 24.628-18.836.61.802"/>
        <path fill="#E6E2D2" d="M36.87 378.234l-.576-.82L87.9 341.277l.578.82"/>
        <path fill="#FFF" d="M51.554 357.11l-.546-.84 32.86-21.01.545.838"/>
        <path fill="#FD6E5E" d="M25.283 362.128l-.503-.864 55.316-32.188.503.863"/>
        <path fill="#FFF" d="M11.587 358.135l-.468-.89 65.457-34.51.47.88"/>
        <path fill="#1E1E20" d="M45.766 330.457l-.427-.905 28-13.292.427.905"/>
        <path fill="#E6E2D2" d="M13.687 334.796l-.397-.924 57.077-24.228.388.92"/>
        <path fill="#C44740" d="M33.397 316.877l-.357-.94 34.638-13.02.348.935"/>
        <path fill="#FD6E5E" d="M10.48 315.15l-.308-.95 55.096-18.11.308.948M46.104 295.02l-.276-.968 17.322-4.898.268.964"/>
        <path fill="#E6E2D2" d="M29.453 290.764l-.232-.97 32.102-7.65.232.97"/>
        <path fill="#2C343B" d="M39.37 280.05l-.193-.982 20.613-4.004.193.983"/>
        <path fill="#E6E2D2" d="M25.09 274l-.144-.995 33.607-5.083.157.99"/>
        <path fill="#2C343B" d="M40.834 263.565l-.112-.99 16.9-1.84.113.99"/>
        <path fill="#E6E2D2" d="M8.164 257.765l-.063-1 48.896-3.25.063 1M20.7 248.153l-.02-.993 35.984-.885.028 1.006M4.63 239.125l.014-.998 51.997.91-.02.994M28.906 231.125l.058-1 27.953 1.67-.058 1"/>
        <path fill="#C44740" d="M24.57 222.23l.098-.993 32.83 3.327-.102 1"/>
        <path fill="#FD6E5E" d="M25.575 213.66l.143-.992 32.662 4.705-.143.992"/>
        <path fill="#FFF" d="M8.273 201.643l.18-.976 51.118 9.56-.19.98M2.36 190.61l.225-.976 58.46 13.502-.222.977"/>
        <path fill="#2C343B" d="M47.13 192.828l.272-.965 15.42 4.245-.264.97"/>
        <path fill="#FFF" d="M.8 169.635l.3-.952 63.792 20.48-.3.95"/>
        <path fill="#E6E2D2" d="M38.76 172.893l.336-.935 28.16 10.36-.346.932"/>
        <path fill="#FD6E5E" d="M19.66 155.734l.384-.914 49.854 20.743-.386.923"/>
    </g>
</svg>
