<svg width="1109" height="911" viewBox="0 0 1109 911" xmlns="http://www.w3.org/2000/svg">
    <title>
        small circle
    </title>
    <g fill="none" fill-rule="evenodd">
        <path d="M426.57 523.67c0 6.36-5.15 11.5-11.5 11.5s-11.5-5.14-11.5-11.5c0-6.35 5.15-11.5 11.5-11.5s11.5 5.15 11.5 11.5z" fill-opacity=".675" fill="#E6E2D2"/>
        <path d="M828.82 795.87c0 3.87-3.13 7-7 7-3.86 0-7-3.13-7-7s3.14-7 7-7c3.87 0 7 3.13 7 7z" fill-opacity=".749" fill="#FD6E5E"/>
        <path d="M733.48 759.45c0 5.24-4.25 9.5-9.5 9.5s-9.5-4.26-9.5-9.5c0-5.25 4.25-9.5 9.5-9.5s9.5 4.25 9.5 9.5z" fill-opacity=".737" fill="#52616D"/>
        <path d="M258.92 347.78c0 5.25-4.26 9.5-9.5 9.5-5.25 0-9.5-4.25-9.5-9.5s4.25-9.5 9.5-9.5c5.24 0 9.5 4.25 9.5 9.5z" fill-opacity=".784" fill="#2C343B"/>
        <path d="M192.23 405.68c0 6.63-5.38 12-12 12-6.63 0-12-5.37-12-12s5.37-12 12-12c6.62 0 12 5.37 12 12z" fill-opacity=".753" fill="#FFF"/>
        <path d="M50.5 376.26c0 6.62-5.37 12-12 12-6.62 0-12-5.38-12-12 0-6.63 5.38-12 12-12 6.63 0 12 5.37 12 12z" fill-opacity=".792" fill="#FD6E5E"/>
        <path d="M1036.95 70.82c0 5.52-4.47 10-10 10-5.52 0-10-4.48-10-10 0-5.53 4.48-10 10-10 5.53 0 10 4.47 10 10z" fill-opacity=".933" fill="#E6E2D2"/>
        <path d="M211.78 304.52c0 4.97-4.03 9-9 9s-9-4.03-9-9 4.03-9 9-9 9 4.03 9 9z" fill-opacity=".82" fill="#2C343B"/>
        <path d="M430.72 590.98c0 1.93-1.56 3.5-3.5 3.5-1.93 0-3.5-1.57-3.5-3.5 0-1.94 1.57-3.5 3.5-3.5 1.94 0 3.5 1.56 3.5 3.5z" fill-opacity=".906" fill="#FFF"/>
        <path d="M878.69 52.78c0 2.76-2.24 5-5 5s-5-2.24-5-5 2.24-5 5-5 5 2.24 5 5z" fill-opacity=".867" fill="#52616D"/>
        <path d="M285.39 298.2c0 1.65-1.34 3-3 3-1.65 0-3-1.35-3-3 0-1.66 1.35-3 3-3 1.66 0 3 1.34 3 3z" fill-opacity=".922" fill="#E6E2D2"/>
        <path d="M571.96 794.94c0 4.7-3.8 8.5-8.5 8.5-4.69 0-8.5-3.8-8.5-8.5 0-4.69 3.81-8.5 8.5-8.5 4.7 0 8.5 3.81 8.5 8.5z" fill-opacity=".792" fill="#FFF"/>
        <path d="M79.95 285.29c0 3.31-2.69 6-6 6-3.32 0-6-2.69-6-6 0-3.32 2.68-6 6-6 3.31 0 6 2.68 6 6z" fill-opacity=".627" fill="#E6E2D2"/>
        <path d="M809.02 90.39c0 3.04-2.46 5.5-5.5 5.5-3.03 0-5.5-2.46-5.5-5.5s2.47-5.5 5.5-5.5c3.04 0 5.5 2.46 5.5 5.5z" fill-opacity=".749" fill="#1E1E20"/>
        <path d="M342.74 174.54c0 4.7-3.81 8.5-8.5 8.5-4.7 0-8.5-3.8-8.5-8.5 0-4.69 3.8-8.5 8.5-8.5 4.69 0 8.5 3.81 8.5 8.5z" fill-opacity=".8" fill="#52616D"/>
        <path d="M221.27 300.91c0 5.52-4.47 10-10 10-5.52 0-10-4.48-10-10s4.48-10 10-10c5.53 0 10 4.48 10 10z" fill-opacity=".733" fill="#52616D"/>
        <path d="M832.71 852.63c0 4.42-3.58 8-8 8s-8-3.58-8-8 3.58-8 8-8 8 3.58 8 8z" fill-opacity=".89" fill="#FFF"/>
        <path d="M77.03 416.49c0 5.24-4.25 9.5-9.5 9.5s-9.5-4.26-9.5-9.5c0-5.25 4.25-9.5 9.5-9.5s9.5 4.25 9.5 9.5z" fill-opacity=".753" fill="#E6E2D2"/>
        <path d="M399.4 898.63c0 3.03-2.46 5.5-5.5 5.5s-5.5-2.47-5.5-5.5c0-3.04 2.46-5.5 5.5-5.5s5.5 2.46 5.5 5.5z" fill-opacity=".796" fill="#1E1E20"/>
        <path d="M315.19 264.8c0 6.07-4.93 11-11 11-6.08 0-11-4.93-11-11 0-6.08 4.92-11 11-11 6.07 0 11 4.92 11 11z" fill-opacity=".792" fill="#2C343B"/>
        <path d="M817.7 715.92c0 1.93-1.57 3.5-3.5 3.5-1.94 0-3.5-1.57-3.5-3.5s1.56-3.5 3.5-3.5c1.93 0 3.5 1.57 3.5 3.5z" fill-opacity=".808" fill="#52616D"/>
        <path d="M1105.63 746.78c0 1.66-1.35 3-3 3-1.66 0-3-1.34-3-3s1.34-3 3-3c1.65 0 3 1.34 3 3z" fill-opacity=".851" fill="#52616D"/>
        <path d="M401.64 306.81c0 6.35-5.15 11.5-11.5 11.5s-11.5-5.15-11.5-11.5 5.15-11.5 11.5-11.5 11.5 5.15 11.5 11.5z" fill-opacity=".773" fill="#E6E2D2"/>
        <path d="M574.1 60.18c0 6.63-5.37 12-12 12s-12-5.37-12-12c0-6.62 5.37-12 12-12s12 5.38 12 12z" fill-opacity=".745" fill="#1E1E20"/>
        <path d="M129.11 384.32c0 6.08-4.92 11-11 11-6.07 0-11-4.92-11-11 0-6.07 4.93-11 11-11 6.08 0 11 4.93 11 11z" fill-opacity=".788" fill="#FD6E5E"/>
        <path d="M445.89 869.8c0 4.14-3.36 7.5-7.5 7.5-4.14 0-7.5-3.36-7.5-7.5 0-4.14 3.36-7.5 7.5-7.5 4.14 0 7.5 3.36 7.5 7.5z" fill-opacity=".624" fill="#1E1E20"/>
        <path d="M776.03 48.21c0 6.63-5.37 12-12 12s-12-5.37-12-12c0-6.62 5.37-12 12-12s12 5.38 12 12z" fill-opacity=".765" fill="#52616D"/>
        <path d="M396.75 612.2c0 3.59-2.91 6.5-6.5 6.5s-6.5-2.91-6.5-6.5 2.91-6.5 6.5-6.5 6.5 2.91 6.5 6.5z" fill-opacity=".965" fill="#C44740"/>
        <path d="M851.38 783.65c0 2.21-1.79 4-4 4s-4-1.79-4-4 1.79-4 4-4 4 1.79 4 4z" fill-opacity=".796" fill="#1E1E20"/>
        <path d="M863.2 34.8c0 3.87-3.13 7-7 7-3.86 0-7-3.13-7-7 0-3.86 3.14-7 7-7 3.87 0 7 3.14 7 7z" fill-opacity=".667" fill="#FFF"/>
        <path d="M822.59 81.1c0 4.42-3.58 8-8 8s-8-3.58-8-8 3.58-8 8-8 8 3.58 8 8z" fill-opacity=".784" fill="#52616D"/>
        <path d="M785.89 825.29c0 3.59-2.91 6.5-6.5 6.5s-6.5-2.91-6.5-6.5 2.91-6.5 6.5-6.5 6.5 2.91 6.5 6.5z" fill-opacity=".616" fill="#E6E2D2"/>
        <path d="M490.94 91.46c0 5.8-4.71 10.5-10.5 10.5-5.8 0-10.5-4.7-10.5-10.5s4.7-10.5 10.5-10.5c5.79 0 10.5 4.7 10.5 10.5z" fill-opacity=".918" fill="#FFF"/>
        <path d="M657.77 692.08c0 2.48-2.01 4.5-4.5 4.5-2.48 0-4.5-2.02-4.5-4.5 0-2.49 2.02-4.5 4.5-4.5 2.49 0 4.5 2.01 4.5 4.5z" fill-opacity=".761" fill="#1E1E20"/>
        <path d="M133.48 332.93c0 1.93-1.56 3.5-3.5 3.5-1.93 0-3.5-1.57-3.5-3.5 0-1.94 1.57-3.5 3.5-3.5 1.94 0 3.5 1.56 3.5 3.5z" fill-opacity=".863" fill="#FFF"/>
        <path d="M756.64 833.24c0 4.97-4.03 9-9 9s-9-4.03-9-9 4.03-9 9-9 9 4.03 9 9z" fill-opacity=".792" fill="#E6E2D2"/>
        <path d="M141.22 343.59c0 5.25-4.26 9.5-9.5 9.5-5.25 0-9.5-4.25-9.5-9.5s4.25-9.5 9.5-9.5c5.24 0 9.5 4.25 9.5 9.5z" fill-opacity=".824" fill="#FFF"/>
        <path d="M1097.98 747.53c0 2.21-1.79 4-4 4s-4-1.79-4-4 1.79-4 4-4 4 1.79 4 4z" fill-opacity=".69" fill="#52616D"/>
        <path d="M232.46 330.07c0 3.59-2.91 6.5-6.5 6.5s-6.5-2.91-6.5-6.5 2.91-6.5 6.5-6.5 6.5 2.91 6.5 6.5z" fill-opacity=".639" fill="#FD6E5E"/>
        <path d="M924.39 81.02c0 3.87-3.13 7-7 7-3.86 0-7-3.13-7-7 0-3.86 3.14-7 7-7 3.87 0 7 3.14 7 7z" fill-opacity=".624" fill="#E6E2D2"/>
        <path d="M798.34 834.56c0 3.87-3.13 7-7 7s-7-3.13-7-7 3.13-7 7-7 7 3.13 7 7z" fill-opacity=".769" fill="#E6E2D2"/>
        <path d="M75.8 327.58c0 3.03-2.46 5.5-5.5 5.5-3.03 0-5.5-2.47-5.5-5.5 0-3.04 2.47-5.5 5.5-5.5 3.04 0 5.5 2.46 5.5 5.5z" fill-opacity=".871" fill="#FD6E5E"/>
        <path d="M499.47 898.7c0 3.03-2.46 5.5-5.5 5.5s-5.5-2.47-5.5-5.5c0-3.04 2.46-5.5 5.5-5.5s5.5 2.46 5.5 5.5z" fill-opacity=".627" fill="#1E1E20"/>
        <path d="M381.37 302.6c0 6.63-5.37 12-12 12s-12-5.37-12-12 5.37-12 12-12 12 5.37 12 12z" fill-opacity=".694" fill="#52616D"/>
        <path d="M696.74 798.85c0 2.48-2.02 4.5-4.5 4.5-2.49 0-4.5-2.02-4.5-4.5 0-2.49 2.01-4.5 4.5-4.5 2.48 0 4.5 2.01 4.5 4.5z" fill-opacity=".957" fill="#FFF"/>
        <path d="M348.54 890.82c0 1.66-1.35 3-3 3-1.66 0-3-1.34-3-3s1.34-3 3-3c1.65 0 3 1.34 3 3z" fill-opacity=".663" fill="#2C343B"/>
        <path d="M406.08 554.64c0 2.21-1.79 4-4 4s-4-1.79-4-4 1.79-4 4-4 4 1.79 4 4z" fill-opacity=".714" fill="#FFF"/>
        <path d="M170.08 262.66c0 3.59-2.91 6.5-6.5 6.5s-6.5-2.91-6.5-6.5 2.91-6.5 6.5-6.5 6.5 2.91 6.5 6.5z" fill-opacity=".957" fill="#E6E2D2"/>
        <path d="M693.52 829.74c0 5.24-4.25 9.5-9.5 9.5-5.24 0-9.5-4.26-9.5-9.5 0-5.25 4.26-9.5 9.5-9.5 5.25 0 9.5 4.25 9.5 9.5z" fill-opacity=".976" fill="#E6E2D2"/>
        <path d="M919.54 13.43c0 5.24-4.25 9.5-9.5 9.5-5.24 0-9.5-4.26-9.5-9.5 0-5.25 4.26-9.5 9.5-9.5 5.25 0 9.5 4.25 9.5 9.5z" fill-opacity=".839" fill="#1E1E20"/>
        <path d="M347.57 36.45c0 4.14-3.35 7.5-7.5 7.5-4.14 0-7.5-3.36-7.5-7.5 0-4.14 3.36-7.5 7.5-7.5 4.15 0 7.5 3.36 7.5 7.5z" fill-opacity=".835" fill="#E6E2D2"/>
        <path d="M795.6 92.72c0 6.35-5.15 11.5-11.5 11.5s-11.5-5.15-11.5-11.5 5.15-11.5 11.5-11.5 11.5 5.15 11.5 11.5z" fill-opacity=".831" fill="#FD6E5E"/>
        <path d="M214.5 337.51c0 4.97-4.03 9-9 9s-9-4.03-9-9 4.03-9 9-9 9 4.03 9 9z" fill-opacity=".663" fill="#52616D"/>
        <path d="M400.74 118.25c0 2.76-2.24 5-5 5s-5-2.24-5-5 2.24-5 5-5 5 2.24 5 5z" fill-opacity=".78" fill="#FFF"/>
        <path d="M944.54 3.21c0 1.38-1.12 2.5-2.5 2.5s-2.5-1.12-2.5-2.5 1.12-2.5 2.5-2.5 2.5 1.12 2.5 2.5z" fill-opacity=".898" fill="#E6E2D2"/>
        <path d="M289.17 212.86c0 5.8-4.7 10.5-10.5 10.5-5.79 0-10.5-4.7-10.5-10.5s4.71-10.5 10.5-10.5c5.8 0 10.5 4.7 10.5 10.5z" fill-opacity=".953" fill="#C44740"/>
        <path d="M129.86 328.99c0 5.25-4.25 9.5-9.5 9.5-5.24 0-9.5-4.25-9.5-9.5 0-5.24 4.26-9.5 9.5-9.5 5.25 0 9.5 4.26 9.5 9.5z" fill-opacity=".706" fill="#1E1E20"/>
        <path d="M744.44 839.49c0 5.24-4.26 9.5-9.5 9.5-5.25 0-9.5-4.26-9.5-9.5 0-5.25 4.25-9.5 9.5-9.5 5.24 0 9.5 4.25 9.5 9.5z" fill-opacity=".702" fill="#52616D"/>
        <path d="M680.66 5.14c0 1.65-1.34 3-3 3s-3-1.35-3-3c0-1.66 1.34-3 3-3s3 1.34 3 3z" fill-opacity=".922" fill="#2C343B"/>
        <path d="M424.47 728.78c0 4.7-3.81 8.5-8.5 8.5-4.7 0-8.5-3.8-8.5-8.5 0-4.69 3.8-8.5 8.5-8.5 4.69 0 8.5 3.81 8.5 8.5z" fill-opacity=".729" fill="#52616D"/>
        <path d="M768.95 812.39c0 1.66-1.35 3-3 3-1.66 0-3-1.34-3-3s1.34-3 3-3c1.65 0 3 1.34 3 3z" fill-opacity=".937" fill="#52616D"/>
        <path d="M906.2 50.84c0 3.32-2.69 6-6 6-3.32 0-6-2.68-6-6 0-3.31 2.68-6 6-6 3.31 0 6 2.69 6 6z" fill-opacity=".643" fill="#FFF"/>
        <path d="M642.11 834.21c0 4.7-3.8 8.5-8.5 8.5-4.69 0-8.5-3.8-8.5-8.5 0-4.69 3.81-8.5 8.5-8.5 4.7 0 8.5 3.81 8.5 8.5z" fill-opacity=".706" fill="#52616D"/>
        <path d="M889.27 765.38c0 6.63-5.37 12-12 12s-12-5.37-12-12 5.37-12 12-12 12 5.37 12 12z" fill-opacity=".918" fill="#E6E2D2"/>
        <path d="M668.63 734.08c0 6.08-4.92 11-11 11s-11-4.92-11-11c0-6.07 4.92-11 11-11s11 4.93 11 11z" fill-opacity=".851" fill="#FFF"/>
        <path d="M432.53 460.85c0 3.32-2.68 6-6 6-3.31 0-6-2.68-6-6 0-3.31 2.69-6 6-6 3.32 0 6 2.69 6 6z" fill-opacity=".804" fill="#52616D"/>
        <path d="M220.4 180.7c0 5.25-4.26 9.5-9.5 9.5-5.25 0-9.5-4.25-9.5-9.5s4.25-9.5 9.5-9.5c5.24 0 9.5 4.25 9.5 9.5z" fill-opacity=".773" fill="#C44740"/>
        <path d="M716.67 754.52c0 4.14-3.36 7.5-7.5 7.5-4.14 0-7.5-3.36-7.5-7.5 0-4.15 3.36-7.5 7.5-7.5 4.14 0 7.5 3.35 7.5 7.5z" fill-opacity=".796" fill="#C44740"/>
        <path d="M1013.3 785.74c0 2.2-1.79 4-4 4s-4-1.8-4-4c0-2.21 1.79-4 4-4s4 1.79 4 4z" fill-opacity=".824" fill="#52616D"/>
        <path d="M328.27 414.04c0 4.14-3.36 7.5-7.5 7.5-4.14 0-7.5-3.36-7.5-7.5 0-4.14 3.36-7.5 7.5-7.5 4.14 0 7.5 3.36 7.5 7.5z" fill-opacity=".698" fill="#C44740"/>
        <path d="M679.63 680.85c0 1.66-1.34 3-3 3s-3-1.34-3-3 1.34-3 3-3 3 1.34 3 3z" fill-opacity=".965" fill="#C44740"/>
        <path d="M417.89 496.36c0 3.87-3.13 7-7 7s-7-3.13-7-7 3.13-7 7-7 7 3.13 7 7z" fill-opacity=".906" fill="#E6E2D2"/>
        <path d="M724.91 57.65c0 2.49-2.02 4.5-4.5 4.5-2.49 0-4.5-2.01-4.5-4.5 0-2.48 2.01-4.5 4.5-4.5 2.48 0 4.5 2.02 4.5 4.5z" fill-opacity=".973" fill="#2C343B"/>
        <path d="M539.75 788.59c0 1.38-1.12 2.5-2.5 2.5s-2.5-1.12-2.5-2.5 1.12-2.5 2.5-2.5 2.5 1.12 2.5 2.5z" fill-opacity=".69" fill="#C44740"/>
        <path d="M289.61 104.58c0 2.49-2.01 4.5-4.5 4.5-2.48 0-4.5-2.01-4.5-4.5s2.02-4.5 4.5-4.5c2.49 0 4.5 2.01 4.5 4.5z" fill-opacity=".698" fill="#FD6E5E"/>
        <path d="M400.56 196.57c0 6.62-5.37 12-12 12s-12-5.38-12-12c0-6.63 5.37-12 12-12s12 5.37 12 12z" fill-opacity=".886" fill="#C44740"/>
        <path d="M56.69 361.83c0 3.31-2.69 6-6 6-3.32 0-6-2.69-6-6s2.68-6 6-6c3.31 0 6 2.69 6 6z" fill-opacity=".894" fill="#E6E2D2"/>
        <path d="M439.28 580.77c0 1.38-1.12 2.5-2.5 2.5s-2.5-1.12-2.5-2.5 1.12-2.5 2.5-2.5 2.5 1.12 2.5 2.5z" fill-opacity=".871" fill="#FFF"/>
        <path d="M288.44 231.28c0 3.87-3.13 7-7 7s-7-3.13-7-7c0-3.86 3.13-7 7-7s7 3.14 7 7z" fill-opacity=".6" fill="#52616D"/>
        <path d="M702.22 41.72c0 5.25-4.26 9.5-9.5 9.5-5.25 0-9.5-4.25-9.5-9.5s4.25-9.5 9.5-9.5c5.24 0 9.5 4.25 9.5 9.5z" fill-opacity=".992" fill="#E6E2D2"/>
        <path d="M743.48 871.43c0 4.41-3.58 8-8 8s-8-3.59-8-8c0-4.42 3.58-8 8-8s8 3.58 8 8z" fill-opacity=".745" fill="#FD6E5E"/>
        <path d="M887.25 26.97c0 5.52-4.48 10-10 10-5.53 0-10-4.48-10-10s4.47-10 10-10c5.52 0 10 4.48 10 10z" fill-opacity=".773" fill="#E6E2D2"/>
        <path d="M301.17 305.91c0 1.94-1.57 3.5-3.5 3.5s-3.5-1.56-3.5-3.5c0-1.93 1.57-3.5 3.5-3.5s3.5 1.57 3.5 3.5z" fill-opacity=".969" fill="#E6E2D2"/>
        <path d="M59.05 339.51c0 2.21-1.79 4-4 4s-4-1.79-4-4 1.79-4 4-4 4 1.79 4 4z" fill-opacity=".98" fill="#E6E2D2"/>
        <path d="M842.62 760.93c0 1.39-1.12 2.5-2.5 2.5s-2.5-1.11-2.5-2.5c0-1.38 1.12-2.5 2.5-2.5s2.5 1.12 2.5 2.5z" fill-opacity=".867" fill="#E6E2D2"/>
        <path d="M148.27 230.18c0 3.04-2.47 5.5-5.5 5.5-3.04 0-5.5-2.46-5.5-5.5s2.46-5.5 5.5-5.5c3.03 0 5.5 2.46 5.5 5.5z" fill-opacity=".714" fill="#52616D"/>
        <path d="M548.83 903.06c0 4.14-3.36 7.5-7.5 7.5-4.14 0-7.5-3.36-7.5-7.5 0-4.14 3.36-7.5 7.5-7.5 4.14 0 7.5 3.36 7.5 7.5z" fill-opacity=".835" fill="#E6E2D2"/>
        <path d="M146.59 296.76c0 3.04-2.47 5.5-5.5 5.5-3.04 0-5.5-2.46-5.5-5.5s2.46-5.5 5.5-5.5c3.03 0 5.5 2.46 5.5 5.5z" fill-opacity=".941" fill="#FD6E5E"/>
        <path d="M728.34 667.58c0 1.93-1.57 3.5-3.5 3.5s-3.5-1.57-3.5-3.5 1.57-3.5 3.5-3.5 3.5 1.57 3.5 3.5z" fill-opacity=".757" fill="#FD6E5E"/>
        <path d="M73.62 306.32c0 5.25-4.25 9.5-9.5 9.5s-9.5-4.25-9.5-9.5 4.25-9.5 9.5-9.5 9.5 4.25 9.5 9.5z" fill-opacity=".922" fill="#52616D"/>
        <path d="M600.57 781.48c0 1.94-1.57 3.5-3.5 3.5s-3.5-1.56-3.5-3.5c0-1.93 1.57-3.5 3.5-3.5s3.5 1.57 3.5 3.5z" fill-opacity=".616" fill="#FD6E5E"/>
        <path d="M352.26 123.73c0 5.25-4.25 9.5-9.5 9.5-5.24 0-9.5-4.25-9.5-9.5s4.26-9.5 9.5-9.5c5.25 0 9.5 4.25 9.5 9.5z" fill-opacity=".953" fill="#52616D"/>
        <path d="M406.42 179.11c0 1.66-1.34 3-3 3-1.65 0-3-1.34-3-3s1.35-3 3-3c1.66 0 3 1.34 3 3z" fill-opacity=".902" fill="#E6E2D2"/>
        <path d="M304.16 408.84c0 6.35-5.15 11.5-11.5 11.5s-11.5-5.15-11.5-11.5 5.15-11.5 11.5-11.5 11.5 5.15 11.5 11.5z" fill-opacity=".89" fill="#E6E2D2"/>
        <path d="M1100.48 706.07c0 2.21-1.8 4-4 4-2.21 0-4-1.79-4-4s1.79-4 4-4c2.2 0 4 1.79 4 4z" fill-opacity=".894" fill="#1E1E20"/>
        <path d="M429.99 329c0 6.07-4.93 11-11 11-6.08 0-11-4.93-11-11 0-6.08 4.92-11 11-11 6.07 0 11 4.92 11 11z" fill-opacity=".898" fill="#52616D"/>
        <path d="M774.83 723.69c0 2.21-1.79 4-4 4s-4-1.79-4-4 1.79-4 4-4 4 1.79 4 4z" fill-opacity=".839" fill="#C44740"/>
        <path d="M368.08 153.04c0 3.31-2.68 6-6 6-3.31 0-6-2.69-6-6 0-3.32 2.69-6 6-6 3.32 0 6 2.68 6 6z" fill-opacity=".675" fill="#52616D"/>
        <path d="M287.49 886.95c0 5.52-4.48 10-10 10s-10-4.48-10-10 4.48-10 10-10 10 4.48 10 10z" fill-opacity=".973" fill="#52616D"/>
        <path d="M320.67 189.67c0 2.76-2.24 5-5 5s-5-2.24-5-5 2.24-5 5-5 5 2.24 5 5z" fill-opacity=".682" fill="#FD6E5E"/>
        <path d="M185.22 250.2c0 1.66-1.35 3-3 3-1.66 0-3-1.34-3-3s1.34-3 3-3c1.65 0 3 1.34 3 3z" fill-opacity=".914" fill="#E6E2D2"/>
        <path d="M392.05 380.14c0 1.66-1.34 3-3 3-1.65 0-3-1.34-3-3 0-1.65 1.35-3 3-3 1.66 0 3 1.35 3 3z" fill-opacity=".843" fill="#FFF"/>
        <path d="M727.93 865.6c0 6.07-4.92 11-11 11-6.07 0-11-4.93-11-11 0-6.08 4.93-11 11-11 6.08 0 11 4.92 11 11z" fill-opacity=".91" fill="#1E1E20"/>
        <path d="M158.11 407.93c0 4.41-3.58 8-8 8-4.41 0-8-3.59-8-8 0-4.42 3.59-8 8-8 4.42 0 8 3.58 8 8z" fill-opacity=".706" fill="#52616D"/>
        <path d="M465.76 694.3c0 4.97-4.03 9-9 9s-9-4.03-9-9 4.03-9 9-9 9 4.03 9 9z" fill-opacity=".82" fill="#FD6E5E"/>
        <path d="M424.31 269.94c0 4.14-3.35 7.5-7.5 7.5-4.14 0-7.5-3.36-7.5-7.5 0-4.14 3.36-7.5 7.5-7.5 4.15 0 7.5 3.36 7.5 7.5z" fill-opacity=".973" fill="#FD6E5E"/>
        <path d="M71.7 403.45c0 5.24-4.25 9.5-9.5 9.5-5.24 0-9.5-4.26-9.5-9.5 0-5.25 4.26-9.5 9.5-9.5 5.25 0 9.5 4.25 9.5 9.5z" fill-opacity=".773" fill="#FD6E5E"/>
        <path d="M877.32 825.78c0 3.04-2.47 5.5-5.5 5.5-3.04 0-5.5-2.46-5.5-5.5 0-3.03 2.46-5.5 5.5-5.5 3.03 0 5.5 2.47 5.5 5.5z" fill-opacity=".71" fill="#E6E2D2"/>
        <path d="M193.94 241.39c0 2.21-1.79 4-4 4s-4-1.79-4-4c0-2.2 1.79-4 4-4s4 1.8 4 4z" fill-opacity=".882" fill="#52616D"/>
        <path d="M993.66 686.6c0 1.93-1.57 3.5-3.5 3.5s-3.5-1.57-3.5-3.5c0-1.94 1.57-3.5 3.5-3.5s3.5 1.56 3.5 3.5z" fill-opacity=".718" fill="#C44740"/>
        <path d="M413.61 892.46c0 6.35-5.14 11.5-11.5 11.5-6.35 0-11.5-5.15-11.5-11.5s5.15-11.5 11.5-11.5c6.36 0 11.5 5.15 11.5 11.5z" fill-opacity=".733" fill="#E6E2D2"/>
        <path d="M557.99 889.29c0 3.87-3.14 7-7 7-3.87 0-7-3.13-7-7 0-3.86 3.13-7 7-7 3.86 0 7 3.14 7 7z" fill-opacity=".969" fill="#FFF"/>
        <path d="M898.57 701.58c0 3.32-2.68 6-6 6-3.31 0-6-2.68-6-6 0-3.31 2.69-6 6-6 3.32 0 6 2.69 6 6z" fill-opacity=".847" fill="#52616D"/>
        <path d="M944.62 723.65c0 4.14-3.36 7.5-7.5 7.5-4.14 0-7.5-3.36-7.5-7.5 0-4.14 3.36-7.5 7.5-7.5 4.14 0 7.5 3.36 7.5 7.5z" fill-opacity=".976" fill="#52616D"/>
        <path d="M374.56 493.3c0 4.42-3.59 8-8 8-4.42 0-8-3.58-8-8s3.58-8 8-8c4.41 0 8 3.58 8 8z" fill-opacity=".89" fill="#FFF"/>
        <path d="M791.52 814.91c0 1.39-1.12 2.5-2.5 2.5-1.39 0-2.5-1.11-2.5-2.5 0-1.38 1.11-2.5 2.5-2.5 1.38 0 2.5 1.12 2.5 2.5z" fill-opacity=".8" fill="#FD6E5E"/>
        <path d="M12.54 294.33c0 3.31-2.69 6-6 6-3.32 0-6-2.69-6-6 0-3.32 2.68-6 6-6 3.31 0 6 2.68 6 6z" fill-opacity=".816" fill="#2C343B"/>
        <path d="M410.38 356.14c0 4.7-3.81 8.5-8.5 8.5-4.7 0-8.5-3.8-8.5-8.5 0-4.69 3.8-8.5 8.5-8.5 4.69 0 8.5 3.81 8.5 8.5z" fill-opacity=".957" fill="#FFF"/>
        <path d="M194.66 310.15c0 1.65-1.34 3-3 3-1.65 0-3-1.35-3-3 0-1.66 1.35-3 3-3 1.66 0 3 1.34 3 3z" fill-opacity=".694" fill="#52616D"/>
        <path d="M964.11 709.02c0 4.14-3.36 7.5-7.5 7.5-4.14 0-7.5-3.36-7.5-7.5 0-4.15 3.36-7.5 7.5-7.5 4.14 0 7.5 3.35 7.5 7.5z" fill-opacity=".796" fill="#FD6E5E"/>
        <path d="M746.56 731.76c0 4.41-3.58 8-8 8s-8-3.59-8-8c0-4.42 3.58-8 8-8s8 3.58 8 8z" fill-opacity=".784" fill="#E6E2D2"/>
        <path d="M551.05 828.35c0 3.03-2.47 5.5-5.5 5.5-3.04 0-5.5-2.47-5.5-5.5 0-3.04 2.46-5.5 5.5-5.5 3.03 0 5.5 2.46 5.5 5.5z" fill-opacity=".6" fill="#E6E2D2"/>
        <path d="M728.35 815.7c0 4.15-3.35 7.5-7.5 7.5-4.14 0-7.5-3.35-7.5-7.5 0-4.14 3.36-7.5 7.5-7.5 4.15 0 7.5 3.36 7.5 7.5z" fill-opacity=".69" fill="#E6E2D2"/>
        <path d="M659.22 38.38c0 2.21-1.79 4-4 4s-4-1.79-4-4 1.79-4 4-4 4 1.79 4 4z" fill-opacity=".878" fill="#C44740"/>
        <path d="M887.28 833.06c0 3.32-2.69 6-6 6-3.32 0-6-2.68-6-6 0-3.31 2.68-6 6-6 3.31 0 6 2.69 6 6z" fill-opacity=".847" fill="#E6E2D2"/>
        <path d="M255.42 347.24c0 6.35-5.15 11.5-11.5 11.5s-11.5-5.15-11.5-11.5 5.15-11.5 11.5-11.5 11.5 5.15 11.5 11.5z" fill-opacity=".627" fill="#2C343B"/>
        <path d="M791.13 13.48c0 4.7-3.8 8.5-8.5 8.5-4.69 0-8.5-3.8-8.5-8.5 0-4.69 3.81-8.5 8.5-8.5 4.7 0 8.5 3.81 8.5 8.5z" fill-opacity=".984" fill="#E6E2D2"/>
        <path d="M700.5 13.63c0 6.62-5.37 12-12 12s-12-5.38-12-12c0-6.63 5.37-12 12-12s12 5.37 12 12z" fill-opacity=".627" fill="#52616D"/>
        <path d="M367.33 37.35c0 3.59-2.91 6.5-6.5 6.5s-6.5-2.91-6.5-6.5 2.91-6.5 6.5-6.5 6.5 2.91 6.5 6.5z" fill-opacity=".745" fill="#E6E2D2"/>
        <path d="M1108.9 722.87c0 6.08-4.92 11-11 11-6.07 0-11-4.92-11-11 0-6.07 4.93-11 11-11 6.08 0 11 4.93 11 11z" fill-opacity=".678" fill="#2C343B"/>
        <path d="M863.75 702.02c0 5.24-4.25 9.5-9.5 9.5-5.24 0-9.5-4.26-9.5-9.5 0-5.25 4.26-9.5 9.5-9.5 5.25 0 9.5 4.25 9.5 9.5z" fill-opacity=".937" fill="#52616D"/>
        <path d="M445.74 577.54c0 2.49-2.02 4.5-4.5 4.5-2.49 0-4.5-2.01-4.5-4.5 0-2.48 2.01-4.5 4.5-4.5 2.48 0 4.5 2.02 4.5 4.5z" fill-opacity=".694" fill="#2C343B"/>
        <path d="M428.99 411.94c0 3.59-2.91 6.5-6.5 6.5s-6.5-2.91-6.5-6.5 2.91-6.5 6.5-6.5 6.5 2.91 6.5 6.5z" fill-opacity=".616" fill="#FFF"/>
        <path d="M641.36 777.24c0 3.03-2.47 5.5-5.5 5.5-3.04 0-5.5-2.47-5.5-5.5 0-3.04 2.46-5.5 5.5-5.5 3.03 0 5.5 2.46 5.5 5.5z" fill-opacity=".765" fill="#52616D"/>
        <path d="M159.69 359.51c0 6.35-5.15 11.5-11.5 11.5s-11.5-5.15-11.5-11.5 5.15-11.5 11.5-11.5 11.5 5.15 11.5 11.5z" fill-opacity=".996" fill="#FFF"/>
        <path d="M577.54 766.37c0 2.76-2.24 5-5 5s-5-2.24-5-5 2.24-5 5-5 5 2.24 5 5z" fill-opacity=".831" fill="#C44740"/>
        <path d="M77.62 259.34c0 3.86-3.13 7-7 7s-7-3.14-7-7c0-3.87 3.13-7 7-7s7 3.13 7 7z" fill-opacity=".996" fill="#52616D"/>
        <path d="M400.05 437.62c0 3.86-3.14 7-7 7-3.87 0-7-3.14-7-7 0-3.87 3.13-7 7-7 3.86 0 7 3.13 7 7z" fill-opacity=".847" fill="#FFF"/>
        <path d="M382.58 308.4c0 1.38-1.12 2.5-2.5 2.5s-2.5-1.12-2.5-2.5 1.12-2.5 2.5-2.5 2.5 1.12 2.5 2.5z" fill-opacity=".643" fill="#C44740"/>
        <path d="M227.47 373.59c0 5.53-4.47 10-10 10-5.52 0-10-4.47-10-10 0-5.52 4.48-10 10-10 5.53 0 10 4.48 10 10z" fill-opacity=".659" fill="#FD6E5E"/>
        <path d="M367 222.5c0 4.14-3.36 7.5-7.5 7.5-4.14 0-7.5-3.36-7.5-7.5 0-4.15 3.36-7.5 7.5-7.5 4.14 0 7.5 3.35 7.5 7.5z" fill-opacity=".592" fill="#1E1E20"/>
        <path d="M653.11 737.83c0 1.38-1.12 2.5-2.5 2.5s-2.5-1.12-2.5-2.5 1.12-2.5 2.5-2.5 2.5 1.12 2.5 2.5z" fill-opacity=".847" fill="#FD6E5E"/>
        <path d="M329.48 129.18c0 2.48-2.02 4.5-4.5 4.5-2.49 0-4.5-2.02-4.5-4.5 0-2.49 2.01-4.5 4.5-4.5 2.48 0 4.5 2.01 4.5 4.5z" fill-opacity=".82" fill="#2C343B"/>
    </g>
</svg>
