<svg width="1160" height="926" viewBox="0 0 1160 926" xmlns="http://www.w3.org/2000/svg">
    <title>
        large circles
    </title>
    <g fill="none" fill-rule="evenodd">
        <path d="M73.18 326.89c0 15.46-12.53 28-28 28-15.46 0-28-12.54-28-28 0-15.47 12.54-28 28-28 15.47 0 28 12.53 28 28z" fill-opacity=".612" fill="#52616D"/>
        <path d="M1159.62 786.78c0 18.78-15.22 34-34 34s-34-15.22-34-34 15.22-34 34-34 34 15.22 34 34z" fill-opacity=".682" fill="#E6E2D2"/>
        <path d="M163.48 301.99c0 15.46-12.53 28-28 28-15.46 0-28-12.54-28-28 0-15.47 12.54-28 28-28 15.47 0 28 12.53 28 28z" fill-opacity=".725" fill="#1E1E20"/>
        <path d="M146.92 438.54c0 19.61-15.9 35.5-35.5 35.5-19.61 0-35.5-15.89-35.5-35.5 0-19.6 15.89-35.5 35.5-35.5 19.6 0 35.5 15.9 35.5 35.5z" fill-opacity=".835" fill="#2C343B"/>
        <path d="M175.92 373c0 16.02-12.98 29-29 29-16.01 0-29-12.98-29-29 0-16.01 12.99-29 29-29 16.02 0 29 12.99 29 29z" fill-opacity=".949" fill="#1E1E20"/>
        <path d="M297.93 431.04c0 16.29-13.21 29.5-29.5 29.5s-29.5-13.21-29.5-29.5 13.21-29.5 29.5-29.5 29.5 13.21 29.5 29.5z" fill-opacity=".8" fill="#E6E2D2"/>
        <path d="M1111.41 743.98c0 18.77-15.22 34-34 34s-34-15.23-34-34c0-18.78 15.22-34 34-34s34 15.22 34 34z" fill-opacity=".62" fill="#FFF"/>
        <path d="M324 321c0 16.02-12.98 29-29 29s-29-12.98-29-29c0-16.01 12.98-29 29-29s29 12.99 29 29z" fill-opacity=".588" fill="#2C343B"/>
        <path d="M655.89 75.48c0 19.33-15.67 35-35 35s-35-15.67-35-35 15.67-35 35-35 35 15.67 35 35z" fill-opacity=".894" fill="#52616D"/>
        <path d="M831.53 892.82c0 18.23-14.78 33-33 33-18.23 0-33-14.77-33-33 0-18.22 14.77-33 33-33 18.22 0 33 14.78 33 33z" fill-opacity=".659" fill="#E6E2D2"/>
        <path d="M318.13 894.75c0 16.84-13.65 30.5-30.5 30.5-16.84 0-30.5-13.66-30.5-30.5 0-16.85 13.66-30.5 30.5-30.5 16.85 0 30.5 13.65 30.5 30.5z" fill-opacity=".627" fill="#52616D"/>
        <path d="M598.83 740.18c0 15.46-12.53 28-28 28-15.46 0-28-12.54-28-28 0-15.47 12.54-28 28-28 15.47 0 28 12.53 28 28z" fill-opacity=".961" fill="#1E1E20"/>
        <path d="M251 394.5c0 20.16-16.35 36.5-36.5 36.5-20.16 0-36.5-16.34-36.5-36.5s16.34-36.5 36.5-36.5c20.15 0 36.5 16.34 36.5 36.5z" fill-opacity=".988" fill="#FFF"/>
        <path d="M381.89 673.59c0 17.4-14.11 31.5-31.5 31.5-17.4 0-31.5-14.1-31.5-31.5s14.1-31.5 31.5-31.5c17.39 0 31.5 14.1 31.5 31.5z" fill-opacity=".686" fill="#52616D"/>
        <path d="M362.15 415.79c0 16.84-13.66 30.5-30.5 30.5-16.85 0-30.5-13.66-30.5-30.5s13.65-30.5 30.5-30.5c16.84 0 30.5 13.66 30.5 30.5z" fill-opacity=".831" fill="#C44740"/>
        <path d="M45.45 388.725c0 12.554-10.17 22.725-22.725 22.725C10.177 411.45 0 401.28 0 388.725 0 376.177 10.177 366 22.725 366c12.554 0 22.725 10.177 22.725 22.725z" fill-opacity=".808" fill="#FFF"/>
        <path d="M809.39 37.48c0 20.43-16.56 37-37 37-20.43 0-37-16.57-37-37 0-20.44 16.57-37 37-37 20.44 0 37 16.56 37 37z" fill-opacity=".969" fill="#FD6E5E"/>
        <path d="M491.4 61.81c0 16.85-13.66 30.5-30.5 30.5-16.85 0-30.5-13.65-30.5-30.5 0-16.84 13.65-30.5 30.5-30.5 16.84 0 30.5 13.66 30.5 30.5z" fill-opacity=".678" fill="#52616D"/>
        <path d="M182.69 889.41c0 15.46-12.54 28-28 28-15.47 0-28-12.54-28-28s12.53-28 28-28c15.46 0 28 12.54 28 28z" fill-opacity=".624" fill="#52616D"/>
        <path d="M1116.08 70.7c0 19.88-16.12 36-36 36-19.89 0-36-16.12-36-36s16.11-36 36-36c19.88 0 36 16.12 36 36z" fill-opacity=".863" fill="#C44740"/>
        <path d="M817.4 748.3c0 19.05-15.45 34.5-34.5 34.5-19.06 0-34.5-15.45-34.5-34.5 0-19.06 15.44-34.5 34.5-34.5 19.05 0 34.5 15.44 34.5 34.5z" fill-opacity=".973" fill="#FD6E5E"/>
        <path d="M491.07 886.35c0 18.22-14.77 33-33 33-18.22 0-33-14.78-33-33 0-18.23 14.78-33 33-33 18.23 0 33 14.77 33 33z" fill-opacity=".78" fill="#FD6E5E"/>
        <path d="M323.63 156.65c0 20.16-16.34 36.5-36.5 36.5s-36.5-16.34-36.5-36.5 16.34-36.5 36.5-36.5 36.5 16.34 36.5 36.5z" fill-opacity=".729" fill="#FFF"/>
        <path d="M740.9 36.39c0 15.74-12.76 28.5-28.5 28.5s-28.5-12.76-28.5-28.5 12.76-28.5 28.5-28.5 28.5 12.76 28.5 28.5z" fill-opacity=".663" fill="#FD6E5E"/>
    </g>
</svg>
