<svg width="1261" height="149" viewBox="0 0 1261 149" xmlns="http://www.w3.org/2000/svg">
    <title>
        lines right
    </title>
    <g fill="none" fill-rule="evenodd">
        <path fill="#1E1E20" d="M0 0h3v105H0"/>
        <path fill="#2C343B" d="M15 0h4v125h-4"/>
        <path fill="#E6E2D2" d="M30 0h3v117h-3"/>
        <path fill="#52616D" d="M45 0h1v132h-1"/>
        <path fill="#2C343B" d="M60 0h4v83h-4"/>
        <path fill="#52616D" d="M75 0h2v105h-2"/>
        <path fill="#2C343B" d="M90 0h1v141h-1"/>
        <path fill="#FFF" d="M105 0h3v103h-3M120 0h1v142h-1"/>
        <path fill="#C44740" d="M135 0h3v128h-3"/>
        <path fill="#52616D" d="M150 0h2v137h-2"/>
        <path fill="#FD6E5E" d="M165 0h3v117h-3"/>
        <path fill="#FFF" d="M180 0h3v86h-3"/>
        <path fill="#2C343B" d="M195 0h1v146h-1"/>
        <path fill="#FFF" d="M210 0h4v147h-4"/>
        <path fill="#52616D" d="M225 0h3v138h-3"/>
        <path fill="#FFF" d="M240 0h3v136h-3M255 0h4v127h-4"/>
        <path fill="#52616D" d="M270 0h3v119h-3"/>
        <path fill="#FD6E5E" d="M285 0h3v119h-3"/>
        <path fill="#2C343B" d="M300 0h2v108h-2"/>
        <path fill="#52616D" d="M315 0h2v104h-2"/>
        <path fill="#FFF" d="M330 0h2v91h-2"/>
        <path fill="#E6E2D2" d="M345 0h1v120h-1"/>
        <path fill="#52616D" d="M360 0h2v77h-2"/>
        <path fill="#1E1E20" d="M375 0h1v99h-1"/>
        <path fill="#52616D" d="M390 0h4v82h-4"/>
        <path fill="#FFF" d="M405 0h4v79h-4"/>
        <path fill="#52616D" d="M420 0h2v137h-2"/>
        <path fill="#FFF" d="M435 0h1v79h-1"/>
        <path fill="#2C343B" d="M450 0h1v125h-1"/>
        <path fill="#FD6E5E" d="M465 0h3v139h-3"/>
        <path fill="#C44740" d="M480 0h1v113h-1"/>
        <path fill="#1E1E20" d="M495 0h1v86h-1"/>
        <path fill="#52616D" d="M510 0h4v149h-4"/>
        <path fill="#1E1E20" d="M525 0h3v119h-3"/>
        <path fill="#C44740" d="M540 0h1v115h-1M555 0h3v90h-3M570 0h2v103h-2"/>
        <path fill="#FD6E5E" d="M585 0h1v107h-1"/>
        <path fill="#52616D" d="M600 0h1v87h-1"/>
        <path fill="#E6E2D2" d="M615 0h2v127h-2M630 0h3v128h-3"/>
        <path fill="#2C343B" d="M645 0h3v148h-3"/>
        <path fill="#FFF" d="M660 0h1v112h-1"/>
        <path fill="#52616D" d="M675 0h4v131h-4"/>
        <path fill="#2C343B" d="M690 0h3v79h-3"/>
        <path fill="#FD6E5E" d="M705 0h1v148h-1"/>
        <path fill="#C44740" d="M720 0h3v88h-3"/>
        <path fill="#FFF" d="M735 0h4v102h-4"/>
        <path fill="#52616D" d="M750 0h2v133h-2M765 0h4v101h-4"/>
        <path fill="#E6E2D2" d="M780 0h3v128h-3M795 0h3v107h-3M810 0h4v121h-4"/>
        <path fill="#FFF" d="M825 0h3v139h-3M840 0h3v147h-3"/>
        <path fill="#52616D" d="M855 0h1v128h-1"/>
        <path fill="#FD6E5E" d="M870 0h2v86h-2"/>
        <path fill="#FFF" d="M885 0h2v142h-2"/>
        <path fill="#52616D" d="M900 0h4v133h-4"/>
        <path fill="#FD6E5E" d="M915 0h1v77h-1"/>
        <path fill="#C44740" d="M930 0h2v93h-2"/>
        <path fill="#1E1E20" d="M945 0h2v125h-2"/>
        <path fill="#E6E2D2" d="M960 0h3v76h-3"/>
        <path fill="#1E1E20" d="M975 0h4v84h-4"/>
        <path fill="#FFF" d="M990 0h3v108h-3"/>
        <path fill="#E6E2D2" d="M1005 0h1v83h-1"/>
        <path fill="#C44740" d="M1020 0h2v102h-2"/>
        <path fill="#FD6E5E" d="M1035 0h2v96h-2"/>
        <path fill="#E6E2D2" d="M1050 0h2v116h-2"/>
        <path fill="#52616D" d="M1065 0h2v98h-2M1080 0h1v89h-1"/>
        <path fill="#E6E2D2" d="M1095 0h2v116h-2"/>
        <path fill="#2C343B" d="M1110 0h3v81h-3"/>
        <path fill="#FFF" d="M1125 0h1v95h-1"/>
        <path fill="#52616D" d="M1140 0h4v149h-4"/>
        <path fill="#1E1E20" d="M1155 0h2v107h-2"/>
        <path fill="#52616D" d="M1170 0h2v138h-2"/>
        <path fill="#E6E2D2" d="M1185 0h1v120h-1"/>
        <path fill="#FFF" d="M1200 0h2v122h-2M1215 0h2v137h-2M1230 0h4v124h-4"/>
        <path fill="#E6E2D2" d="M1245 0h1v77h-1"/>
        <path fill="#C44740" d="M1260 0h1v127h-1"/>
    </g>
</svg>
