<svg width="143" height="1241" viewBox="0 0 143 1241" xmlns="http://www.w3.org/2000/svg">
    <title>
        render7
    </title>
    <g fill="none" fill-rule="evenodd">
        <path fill-opacity=".722" fill="#FFF" d="M0 1241v-36h110v36"/>
        <path fill-opacity=".961" fill="#FD6E5E" d="M0 1191v-32h113v32"/>
        <path fill-opacity=".957" fill="#52616D" d="M0 1141v-44h122v44"/>
        <path fill-opacity=".659" fill="#C44740" d="M0 1091v-37h113v37"/>
        <path fill-opacity=".733" fill="#52616D" d="M0 1041v-34h108v34"/>
        <path fill-opacity=".62" fill="#2C343B" d="M0 991v-33h98v33"/>
        <path fill-opacity=".933" fill="#E6E2D2" d="M0 941v-41h93v41"/>
        <path fill-opacity=".78" fill="#FFF" d="M0 891v-41h140v41"/>
        <path fill-opacity=".647" fill="#E6E2D2" d="M0 841v-44h120v44"/>
        <path fill-opacity=".702" fill="#2C343B" d="M0 791v-41h132v41"/>
        <path fill-opacity=".804" fill="#1E1E20" d="M0 741v-36h87v36"/>
        <path fill-opacity=".949" fill="#E6E2D2" d="M0 691v-36h84v36"/>
        <path fill-opacity=".659" fill="#FD6E5E" d="M0 641v-36h115v36"/>
        <path fill-opacity=".894" fill="#E6E2D2" d="M0 591v-31h126v31"/>
        <path fill-opacity=".804" fill="#E6E2D2" d="M0 541v-35h143v35"/>
        <path fill-opacity=".702" fill="#52616D" d="M0 491v-35h87v35"/>
        <path fill-opacity=".875" fill="#52616D" d="M0 441v-41h115v41"/>
        <path fill-opacity=".992" fill="#FFF" d="M0 391v-41h100v41"/>
        <path fill-opacity=".663" fill="#FFF" d="M0 341v-36h76v36"/>
        <path fill-opacity=".922" fill="#FFF" d="M0 291v-44h78v44"/>
        <path fill-opacity=".627" fill="#E6E2D2" d="M0 241v-37h119v37"/>
        <path fill-opacity=".671" fill="#FFF" d="M0 191v-34h122v34"/>
        <path fill-opacity=".984" fill="#1E1E20" d="M0 141v-34h106v34"/>
        <path fill-opacity=".725" fill="#1E1E20" d="M0 91V47h119v44"/>
        <path fill-opacity=".953" fill="#E6E2D2" d="M0 41V0h107v41"/>
    </g>
</svg>
