<svg width="143" height="1241" viewBox="0 0 143 1241" xmlns="http://www.w3.org/2000/svg">
    <title>
        render7
    </title>
    <g fill="none" fill-rule="evenodd">
        <path fill-opacity=".722" fill="#FFF" d="M143 1241v-36H33v36"/>
        <path fill-opacity=".961" fill="#FD6E5E" d="M143 1191v-32H30v32"/>
        <path fill-opacity=".957" fill="#52616D" d="M143 1141v-44H21v44"/>
        <path fill-opacity=".659" fill="#C44740" d="M143 1091v-37H30v37"/>
        <path fill-opacity=".733" fill="#52616D" d="M143 1041v-34H35v34"/>
        <path fill-opacity=".62" fill="#2C343B" d="M143 991v-33H45v33"/>
        <path fill-opacity=".933" fill="#E6E2D2" d="M143 941v-41H50v41"/>
        <path fill-opacity=".78" fill="#FFF" d="M143 891v-41H3v41"/>
        <path fill-opacity=".647" fill="#E6E2D2" d="M143 841v-44H23v44"/>
        <path fill-opacity=".702" fill="#2C343B" d="M143 791v-41H11v41"/>
        <path fill-opacity=".804" fill="#1E1E20" d="M143 741v-36H56v36"/>
        <path fill-opacity=".949" fill="#E6E2D2" d="M143 691v-36H59v36"/>
        <path fill-opacity=".659" fill="#FD6E5E" d="M143 641v-36H28v36"/>
        <path fill-opacity=".894" fill="#E6E2D2" d="M143 591v-31H17v31"/>
        <path fill-opacity=".804" fill="#E6E2D2" d="M143 541v-35H0v35"/>
        <path fill-opacity=".702" fill="#52616D" d="M143 491v-35H56v35"/>
        <path fill-opacity=".875" fill="#52616D" d="M143 441v-41H28v41"/>
        <path fill-opacity=".992" fill="#FFF" d="M143 391v-41H43v41"/>
        <path fill-opacity=".663" fill="#FFF" d="M143 341v-36H67v36"/>
        <path fill-opacity=".922" fill="#FFF" d="M143 291v-44H65v44"/>
        <path fill-opacity=".627" fill="#E6E2D2" d="M143 241v-37H24v37"/>
        <path fill-opacity=".671" fill="#FFF" d="M143 191v-34H21v34"/>
        <path fill-opacity=".984" fill="#1E1E20" d="M143 141v-34H37v34"/>
        <path fill-opacity=".725" fill="#1E1E20" d="M143 91V47H24v44"/>
        <path fill-opacity=".953" fill="#E6E2D2" d="M143 41V0H36v41"/>
    </g>
</svg>
