<svg width="149" height="1261" viewBox="0 0 149 1261" xmlns="http://www.w3.org/2000/svg">
    <title>
        render3
    </title>
    <g fill="none" fill-rule="evenodd">
        <path fill="#1E1E20" d="M149 1261v-3H44v3"/>
        <path fill="#2C343B" d="M149 1246v-4H24v4"/>
        <path fill="#E6E2D2" d="M149 1231v-3H32v3"/>
        <path fill="#52616D" d="M149 1216v-1H17v1"/>
        <path fill="#2C343B" d="M149 1201v-4H66v4"/>
        <path fill="#52616D" d="M149 1186v-2H44v2"/>
        <path fill="#2C343B" d="M149 1171v-1H8v1"/>
        <path fill="#FFF" d="M149 1156v-3H46v3M149 1141v-1H7v1"/>
        <path fill="#C44740" d="M149 1126v-3H21v3"/>
        <path fill="#52616D" d="M149 1111v-2H12v2"/>
        <path fill="#FD6E5E" d="M149 1096v-3H32v3"/>
        <path fill="#FFF" d="M149 1081v-3H63v3"/>
        <path fill="#2C343B" d="M149 1066v-1H3v1"/>
        <path fill="#FFF" d="M149 1051v-4H2v4"/>
        <path fill="#52616D" d="M149 1036v-3H11v3"/>
        <path fill="#FFF" d="M149 1021v-3H13v3M149 1006v-4H22v4"/>
        <path fill="#52616D" d="M149 991v-3H30v3"/>
        <path fill="#FD6E5E" d="M149 976v-3H30v3"/>
        <path fill="#2C343B" d="M149 961v-2H41v2"/>
        <path fill="#52616D" d="M149 946v-2H45v2"/>
        <path fill="#FFF" d="M149 931v-2H58v2"/>
        <path fill="#E6E2D2" d="M149 916v-1H29v1"/>
        <path fill="#52616D" d="M149 901v-2H72v2"/>
        <path fill="#1E1E20" d="M149 886v-1H50v1"/>
        <path fill="#52616D" d="M149 871v-4H67v4"/>
        <path fill="#FFF" d="M149 856v-4H70v4"/>
        <path fill="#52616D" d="M149 841v-2H12v2"/>
        <path fill="#FFF" d="M149 826v-1H70v1"/>
        <path fill="#2C343B" d="M149 811v-1H24v1"/>
        <path fill="#FD6E5E" d="M149 796v-3H10v3"/>
        <path fill="#C44740" d="M149 781v-1H36v1"/>
        <path fill="#1E1E20" d="M149 766v-1H63v1"/>
        <path fill="#52616D" d="M149 751v-4H0v4"/>
        <path fill="#1E1E20" d="M149 736v-3H30v3"/>
        <path fill="#C44740" d="M149 721v-1H34v1M149 706v-3H59v3M149 691v-2H46v2"/>
        <path fill="#FD6E5E" d="M149 676v-1H42v1"/>
        <path fill="#52616D" d="M149 661v-1H62v1"/>
        <path fill="#E6E2D2" d="M149 646v-2H22v2M149 631v-3H21v3"/>
        <path fill="#2C343B" d="M149 616v-3H1v3"/>
        <path fill="#FFF" d="M149 601v-1H37v1"/>
        <path fill="#52616D" d="M149 586v-4H18v4"/>
        <path fill="#2C343B" d="M149 571v-3H70v3"/>
        <path fill="#FD6E5E" d="M149 556v-1H1v1"/>
        <path fill="#C44740" d="M149 541v-3H61v3"/>
        <path fill="#FFF" d="M149 526v-4H47v4"/>
        <path fill="#52616D" d="M149 511v-2H16v2M149 496v-4H48v4"/>
        <path fill="#E6E2D2" d="M149 481v-3H21v3M149 466v-3H42v3M149 451v-4H28v4"/>
        <path fill="#FFF" d="M149 436v-3H10v3M149 421v-3H2v3"/>
        <path fill="#52616D" d="M149 406v-1H21v1"/>
        <path fill="#FD6E5E" d="M149 391v-2H63v2"/>
        <path fill="#FFF" d="M149 376v-2H7v2"/>
        <path fill="#52616D" d="M149 361v-4H16v4"/>
        <path fill="#FD6E5E" d="M149 346v-1H72v1"/>
        <path fill="#C44740" d="M149 331v-2H56v2"/>
        <path fill="#1E1E20" d="M149 316v-2H24v2"/>
        <path fill="#E6E2D2" d="M149 301v-3H73v3"/>
        <path fill="#1E1E20" d="M149 286v-4H65v4"/>
        <path fill="#FFF" d="M149 271v-3H41v3"/>
        <path fill="#E6E2D2" d="M149 256v-1H66v1"/>
        <path fill="#C44740" d="M149 241v-2H47v2"/>
        <path fill="#FD6E5E" d="M149 226v-2H53v2"/>
        <path fill="#E6E2D2" d="M149 211v-2H33v2"/>
        <path fill="#52616D" d="M149 196v-2H51v2M149 181v-1H60v1"/>
        <path fill="#E6E2D2" d="M149 166v-2H33v2"/>
        <path fill="#2C343B" d="M149 151v-3H68v3"/>
        <path fill="#FFF" d="M149 136v-1H54v1"/>
        <path fill="#52616D" d="M149 121v-4H0v4"/>
        <path fill="#1E1E20" d="M149 106v-2H42v2"/>
        <path fill="#52616D" d="M149 91v-2H11v2"/>
        <path fill="#E6E2D2" d="M149 76v-1H29v1"/>
        <path fill="#FFF" d="M149 61v-2H27v2M149 46v-2H12v2M149 31v-4H25v4"/>
        <path fill="#E6E2D2" d="M149 16v-1H72v1"/>
        <path fill="#C44740" d="M149 1V0H22v1"/>
    </g>
</svg>
