<svg width="149" height="1261" viewBox="0 0 149 1261" xmlns="http://www.w3.org/2000/svg">
    <title>
        render3
    </title>
    <g fill="none" fill-rule="evenodd">
        <path fill="#1E1E20" d="M0 1261v-3h105v3"/>
        <path fill="#2C343B" d="M0 1246v-4h125v4"/>
        <path fill="#E6E2D2" d="M0 1231v-3h117v3"/>
        <path fill="#52616D" d="M0 1216v-1h132v1"/>
        <path fill="#2C343B" d="M0 1201v-4h83v4"/>
        <path fill="#52616D" d="M0 1186v-2h105v2"/>
        <path fill="#2C343B" d="M0 1171v-1h141v1"/>
        <path fill="#FFF" d="M0 1156v-3h103v3M0 1141v-1h142v1"/>
        <path fill="#C44740" d="M0 1126v-3h128v3"/>
        <path fill="#52616D" d="M0 1111v-2h137v2"/>
        <path fill="#FD6E5E" d="M0 1096v-3h117v3"/>
        <path fill="#FFF" d="M0 1081v-3h86v3"/>
        <path fill="#2C343B" d="M0 1066v-1h146v1"/>
        <path fill="#FFF" d="M0 1051v-4h147v4"/>
        <path fill="#52616D" d="M0 1036v-3h138v3"/>
        <path fill="#FFF" d="M0 1021v-3h136v3M0 1006v-4h127v4"/>
        <path fill="#52616D" d="M0 991v-3h119v3"/>
        <path fill="#FD6E5E" d="M0 976v-3h119v3"/>
        <path fill="#2C343B" d="M0 961v-2h108v2"/>
        <path fill="#52616D" d="M0 946v-2h104v2"/>
        <path fill="#FFF" d="M0 931v-2h91v2"/>
        <path fill="#E6E2D2" d="M0 916v-1h120v1"/>
        <path fill="#52616D" d="M0 901v-2h77v2"/>
        <path fill="#1E1E20" d="M0 886v-1h99v1"/>
        <path fill="#52616D" d="M0 871v-4h82v4"/>
        <path fill="#FFF" d="M0 856v-4h79v4"/>
        <path fill="#52616D" d="M0 841v-2h137v2"/>
        <path fill="#FFF" d="M0 826v-1h79v1"/>
        <path fill="#2C343B" d="M0 811v-1h125v1"/>
        <path fill="#FD6E5E" d="M0 796v-3h139v3"/>
        <path fill="#C44740" d="M0 781v-1h113v1"/>
        <path fill="#1E1E20" d="M0 766v-1h86v1"/>
        <path fill="#52616D" d="M0 751v-4h149v4"/>
        <path fill="#1E1E20" d="M0 736v-3h119v3"/>
        <path fill="#C44740" d="M0 721v-1h115v1M0 706v-3h90v3M0 691v-2h103v2"/>
        <path fill="#FD6E5E" d="M0 676v-1h107v1"/>
        <path fill="#52616D" d="M0 661v-1h87v1"/>
        <path fill="#E6E2D2" d="M0 646v-2h127v2M0 631v-3h128v3"/>
        <path fill="#2C343B" d="M0 616v-3h148v3"/>
        <path fill="#FFF" d="M0 601v-1h112v1"/>
        <path fill="#52616D" d="M0 586v-4h131v4"/>
        <path fill="#2C343B" d="M0 571v-3h79v3"/>
        <path fill="#FD6E5E" d="M0 556v-1h148v1"/>
        <path fill="#C44740" d="M0 541v-3h88v3"/>
        <path fill="#FFF" d="M0 526v-4h102v4"/>
        <path fill="#52616D" d="M0 511v-2h133v2M0 496v-4h101v4"/>
        <path fill="#E6E2D2" d="M0 481v-3h128v3M0 466v-3h107v3M0 451v-4h121v4"/>
        <path fill="#FFF" d="M0 436v-3h139v3M0 421v-3h147v3"/>
        <path fill="#52616D" d="M0 406v-1h128v1"/>
        <path fill="#FD6E5E" d="M0 391v-2h86v2"/>
        <path fill="#FFF" d="M0 376v-2h142v2"/>
        <path fill="#52616D" d="M0 361v-4h133v4"/>
        <path fill="#FD6E5E" d="M0 346v-1h77v1"/>
        <path fill="#C44740" d="M0 331v-2h93v2"/>
        <path fill="#1E1E20" d="M0 316v-2h125v2"/>
        <path fill="#E6E2D2" d="M0 301v-3h76v3"/>
        <path fill="#1E1E20" d="M0 286v-4h84v4"/>
        <path fill="#FFF" d="M0 271v-3h108v3"/>
        <path fill="#E6E2D2" d="M0 256v-1h83v1"/>
        <path fill="#C44740" d="M0 241v-2h102v2"/>
        <path fill="#FD6E5E" d="M0 226v-2h96v2"/>
        <path fill="#E6E2D2" d="M0 211v-2h116v2"/>
        <path fill="#52616D" d="M0 196v-2h98v2M0 181v-1h89v1"/>
        <path fill="#E6E2D2" d="M0 166v-2h116v2"/>
        <path fill="#2C343B" d="M0 151v-3h81v3"/>
        <path fill="#FFF" d="M0 136v-1h95v1"/>
        <path fill="#52616D" d="M0 121v-4h149v4"/>
        <path fill="#1E1E20" d="M0 106v-2h107v2"/>
        <path fill="#52616D" d="M0 91v-2h138v2"/>
        <path fill="#E6E2D2" d="M0 76v-1h120v1"/>
        <path fill="#FFF" d="M0 61v-2h122v2M0 46v-2h137v2M0 31v-4h124v4"/>
        <path fill="#E6E2D2" d="M0 16v-1h77v1"/>
        <path fill="#C44740" d="M0 1V0h127v1"/>
    </g>
</svg>
