<svg width="1233" height="445" viewBox="0 0 1233 445" xmlns="http://www.w3.org/2000/svg">
    <title>
        render1
    </title>
    <g fill="none" fill-rule="evenodd" opacity=".73">
        <path d="M695.14 333.5c0 20.16-16.34 36.5-36.5 36.5s-36.5-16.34-36.5-36.5 16.34-36.5 36.5-36.5 36.5 16.34 36.5 36.5z" fill-opacity=".894" fill="#2C343B"/>
        <path d="M190.05 169.66c0 15.74-12.76 28.5-28.5 28.5s-28.5-12.76-28.5-28.5 12.76-28.5 28.5-28.5 28.5 12.76 28.5 28.5z" fill-opacity=".851" fill="#1E1E20"/>
        <path d="M286 229c0 17.12-13.88 31-31 31-17.12 0-31-13.88-31-31 0-17.12 13.88-31 31-31 17.12 0 31 13.88 31 31z" fill-opacity=".757" fill="#E6E2D2"/>
        <path d="M208 101c0 17.68-14.32 32-32 32-17.67 0-32-14.32-32-32 0-17.67 14.33-32 32-32 17.68 0 32 14.33 32 32z" fill-opacity=".855" fill="#FFF"/>
        <path d="M525.2 309c0 14.36-11.64 26-26 26s-26-11.64-26-26 11.64-26 26-26 26 11.64 26 26z" fill-opacity=".725" fill="#FFF"/>
        <path d="M907.81 298c0 19.88-16.12 36-36 36-19.89 0-36-16.12-36-36 0-19.89 16.11-36 36-36 19.88 0 36 16.11 36 36z" fill-opacity=".882" fill="#2C343B"/>
        <path d="M163.12 34.74c0 14.91-12.09 27-27 27s-27-12.09-27-27 12.09-27 27-27 27 12.09 27 27z" fill-opacity=".651" fill="#1E1E20"/>
        <path d="M69 34.5C69 53.56 53.56 69 34.5 69 15.45 69 0 53.56 0 34.5 0 15.45 15.45 0 34.5 0 53.56 0 69 15.45 69 34.5z" fill-opacity=".6" fill="#FD6E5E"/>
        <path d="M977 264.5c0 14.09-11.41 25.5-25.5 25.5-14.08 0-25.5-11.41-25.5-25.5 0-14.08 11.42-25.5 25.5-25.5 14.09 0 25.5 11.42 25.5 25.5z" fill-opacity=".639" fill="#E6E2D2"/>
        <path d="M1155 105.5c0 14.08-11.41 25.5-25.5 25.5-14.08 0-25.5-11.42-25.5-25.5 0-14.09 11.42-25.5 25.5-25.5 14.09 0 25.5 11.41 25.5 25.5z" fill-opacity=".918" fill="#2C343B"/>
        <path d="M401.83 282.15c0 14.91-12.09 27-27 27-14.92 0-27-12.09-27-27s12.08-27 27-27c14.91 0 27 12.09 27 27z" fill-opacity=".78" fill="#2C343B"/>
        <path d="M926.38 392.68c0 16.84-13.66 30.5-30.5 30.5-16.85 0-30.5-13.66-30.5-30.5 0-16.85 13.65-30.5 30.5-30.5 16.84 0 30.5 13.65 30.5 30.5z" fill-opacity=".812" fill="#FD6E5E"/>
        <path d="M1233 34.5c0 17.95-14.55 32.5-32.5 32.5-17.94 0-32.5-14.55-32.5-32.5S1182.56 2 1200.5 2c17.95 0 32.5 14.55 32.5 32.5z" fill-opacity=".816" fill="#FFF"/>
        <path d="M473.2 357.22c0 20.44-16.56 37-37 37-20.43 0-37-16.56-37-37 0-20.43 16.57-37 37-37 20.44 0 37 16.57 37 37z" fill-opacity=".863" fill="#E6E2D2"/>
        <path d="M420.7 409.88c0 19.05-15.45 34.5-34.5 34.5-19.06 0-34.5-15.45-34.5-34.5 0-19.06 15.44-34.5 34.5-34.5 19.05 0 34.5 15.44 34.5 34.5z" fill-opacity=".773" fill="#FFF"/>
        <path d="M1120.97 300.88c0 17.95-14.55 32.5-32.5 32.5s-32.5-14.55-32.5-32.5 14.55-32.5 32.5-32.5 32.5 14.55 32.5 32.5z" fill-opacity=".706" fill="#C44740"/>
        <path d="M815 371.5c0 15.19-12.31 27.5-27.5 27.5S760 386.69 760 371.5c0-15.18 12.31-27.5 27.5-27.5s27.5 12.32 27.5 27.5z" fill-opacity=".667" fill="#FFF"/>
        <path d="M363.58 334.76c0 16.85-13.65 30.5-30.5 30.5-16.84 0-30.5-13.65-30.5-30.5 0-16.84 13.66-30.5 30.5-30.5 16.85 0 30.5 13.66 30.5 30.5z" fill-opacity=".859" fill="#E6E2D2"/>
        <path d="M1056 166.5c0 17.4-14.1 31.5-31.5 31.5-17.39 0-31.5-14.1-31.5-31.5 0-17.39 14.11-31.5 31.5-31.5 17.4 0 31.5 14.11 31.5 31.5z" fill-opacity=".89" fill="#FD6E5E"/>
        <path d="M1033 351.5c0 17.4-14.1 31.5-31.5 31.5S970 368.9 970 351.5c0-17.39 14.1-31.5 31.5-31.5s31.5 14.11 31.5 31.5z" fill-opacity=".839" fill="#FFF"/>
    </g>
</svg>
