<svg width="1180" height="423" viewBox="0 0 1180 423" xmlns="http://www.w3.org/2000/svg">
    <title>
        render1
    </title>
    <g fill="none" fill-rule="evenodd">
        <path d="M565.53 287.41c0 .82-.67 1.5-1.5 1.5s-1.5-.68-1.5-1.5c0-.83.67-1.5 1.5-1.5s1.5.67 1.5 1.5z" fill="#2C343B"/>
        <path d="M186.58 132.94c0 3.59-2.91 6.5-6.5 6.5s-6.5-2.91-6.5-6.5 2.91-6.5 6.5-6.5 6.5 2.91 6.5 6.5z" fill="#E6E2D2"/>
        <path d="M167.7 107.46c0 3.86-3.13 7-7 7-3.86 0-7-3.14-7-7 0-3.87 3.14-7 7-7 3.87 0 7 3.13 7 7z" fill="#FD6E5E"/>
        <path d="M1095.12 274.24c0 2.21-1.79 4-4 4s-4-1.79-4-4 1.79-4 4-4 4 1.79 4 4z" fill="#2C343B"/>
        <path d="M694.49 338.72c0 3.59-2.91 6.5-6.5 6.5s-6.5-2.91-6.5-6.5 2.91-6.5 6.5-6.5 6.5 2.91 6.5 6.5zM833.98 417.86c0 2.76-2.24 5-5 5-2.77 0-5-2.24-5-5s2.23-5 5-5c2.76 0 5 2.24 5 5z" fill="#FFF"/>
        <path d="M48.96 82.34c0 1.39-1.12 2.5-2.5 2.5s-2.5-1.11-2.5-2.5c0-1.38 1.12-2.5 2.5-2.5s2.5 1.12 2.5 2.5z" fill="#2C343B"/>
        <path d="M1125.6 224.43c0 .83-.67 1.5-1.5 1.5s-1.5-.67-1.5-1.5.67-1.5 1.5-1.5 1.5.67 1.5 1.5z" fill="#FD6E5E"/>
        <path d="M715.69 286.1c0 .83-.67 1.5-1.5 1.5s-1.5-.67-1.5-1.5.67-1.5 1.5-1.5 1.5.67 1.5 1.5z" fill="#E6E2D2"/>
        <path d="M33.2 52.56c0 .55-.45 1-1 1s-1-.45-1-1 .45-1 1-1 1 .45 1 1z" fill="#FD6E5E"/>
        <path d="M63.44 102.85c0 1.38-1.12 2.5-2.5 2.5s-2.5-1.12-2.5-2.5 1.12-2.5 2.5-2.5 2.5 1.12 2.5 2.5z" fill="#1E1E20"/>
        <path d="M1063.92 391.78c0 2.49-2.01 4.5-4.5 4.5s-4.5-2.01-4.5-4.5c0-2.48 2.01-4.5 4.5-4.5s4.5 2.02 4.5 4.5z" fill="#2C343B"/>
        <path d="M2.31 84.21c0 .56-.45 1-1 1s-1-.44-1-1c0-.55.45-1 1-1s1 .45 1 1z" fill="#FFF"/>
        <path d="M763.5 311.74c0 3.59-2.91 6.5-6.5 6.5s-6.5-2.91-6.5-6.5 2.91-6.5 6.5-6.5 6.5 2.91 6.5 6.5zM791.72 291.56c0 1.66-1.34 3-3 3-1.65 0-3-1.34-3-3 0-1.65 1.35-3 3-3 1.66 0 3 1.35 3 3z" fill="#C44740"/>
        <path d="M904.13 297.79c0 3.31-2.69 6-6 6-3.32 0-6-2.69-6-6s2.68-6 6-6c3.31 0 6 2.69 6 6zM1022.1 248.07c0 3.59-2.91 6.5-6.5 6.5s-6.5-2.91-6.5-6.5 2.91-6.5 6.5-6.5 6.5 2.91 6.5 6.5z" fill="#FFF"/>
        <path d="M799.41 339.86c0 3.87-3.14 7-7 7-3.87 0-7-3.13-7-7 0-3.86 3.13-7 7-7 3.86 0 7 3.14 7 7z" fill="#E6E2D2"/>
        <path d="M269.79 338.02c0 2.76-2.23 5-5 5-2.76 0-5-2.24-5-5s2.24-5 5-5c2.77 0 5 2.24 5 5z" fill="#FD6E5E"/>
        <path d="M102.78 208.12c0 2.76-2.24 5-5 5s-5-2.24-5-5c0-2.77 2.24-5 5-5s5 2.23 5 5zM1017.63 210.93c0 1.66-1.34 3-3 3s-3-1.34-3-3 1.34-3 3-3 3 1.34 3 3z" fill="#1E1E20"/>
        <path d="M501.91 271.63c0 3.87-3.14 7-7 7-3.87 0-7-3.13-7-7 0-3.86 3.13-7 7-7 3.86 0 7 3.14 7 7z" fill="#FD6E5E"/>
        <path d="M1085.32 313.14c0 .83-.67 1.5-1.5 1.5s-1.5-.67-1.5-1.5.67-1.5 1.5-1.5 1.5.67 1.5 1.5z" fill="#C44740"/>
        <path d="M208.79 270.65c0 3.32-2.69 6-6 6s-6-2.68-6-6c0-3.31 2.69-6 6-6s6 2.69 6 6z" fill="#FD6E5E"/>
        <path
            d="M303.44 323.64c0 1.66-1.34 3-3 3-1.65 0-3-1.34-3-3 0-1.65 1.35-3 3-3 1.66 0 3 1.35 3 3zM522 346.57c0 1.93-1.57 3.5-3.5 3.5s-3.5-1.57-3.5-3.5 1.57-3.5 3.5-3.5 3.5 1.57 3.5 3.5zM922.64 382.75c0 3.59-2.91 6.5-6.5 6.5s-6.5-2.91-6.5-6.5 2.91-6.5 6.5-6.5 6.5 2.91 6.5 6.5z"
            fill="#FFF"/>
        <path d="M1004.68 227.88c0 .28-.22.5-.5.5-.27 0-.5-.22-.5-.5 0-.27.23-.5.5-.5.28 0 .5.23.5.5z" fill="#2C343B"/>
        <path d="M344.3 279.57c0 2.2-1.79 4-4 4s-4-1.8-4-4c0-2.21 1.79-4 4-4s4 1.79 4 4z" fill="#C44740"/>
        <path d="M986.48 317.09c0 .56-.45 1-1 1s-1-.44-1-1c0-.55.45-1 1-1s1 .45 1 1z" fill="#E6E2D2"/>
        <path d="M770.3 360.77c0 2.48-2.01 4.5-4.5 4.5-2.48 0-4.5-2.02-4.5-4.5 0-2.49 2.02-4.5 4.5-4.5 2.49 0 4.5 2.01 4.5 4.5z" fill="#C44740"/>
        <path d="M542.51 347.48c0 1.93-1.57 3.5-3.5 3.5s-3.5-1.57-3.5-3.5 1.57-3.5 3.5-3.5 3.5 1.57 3.5 3.5z" fill="#E6E2D2"/>
        <path d="M1018.77 334.11c0 2.76-2.24 5-5 5s-5-2.24-5-5 2.24-5 5-5 5 2.24 5 5z" fill="#2C343B"/>
        <path d="M225.83 365.81c0 3.03-2.46 5.5-5.5 5.5-3.03 0-5.5-2.47-5.5-5.5 0-3.04 2.47-5.5 5.5-5.5 3.04 0 5.5 2.46 5.5 5.5z" fill="#E6E2D2"/>
        <path d="M1179.91 161.26c0 3.59-2.91 6.5-6.5 6.5s-6.5-2.91-6.5-6.5 2.91-6.5 6.5-6.5 6.5 2.91 6.5 6.5z" fill="#1E1E20"/>
        <path d="M318.4 362.95c0 .55-.45 1-1 1s-1-.45-1-1 .45-1 1-1 1 .45 1 1z" fill="#FFF"/>
        <path d="M1072.97 146.01c0 1.11-.89 2-2 2-1.1 0-2-.89-2-2 0-1.1.9-2 2-2 1.11 0 2 .9 2 2z" fill="#1E1E20"/>
        <path d="M174.5 163.05c0 1.38-1.12 2.5-2.5 2.5s-2.5-1.12-2.5-2.5 1.12-2.5 2.5-2.5 2.5 1.12 2.5 2.5z" fill="#C44740"/>
        <path d="M474.23 354.22c0 3.86-3.13 7-7 7-3.86 0-7-3.14-7-7 0-3.87 3.14-7 7-7 3.87 0 7 3.13 7 7z" fill="#1E1E20"/>
        <path d="M689.63 352.18c0 3.59-2.91 6.5-6.5 6.5s-6.5-2.91-6.5-6.5 2.91-6.5 6.5-6.5 6.5 2.91 6.5 6.5z" fill="#C44740"/>
        <path d="M1113.26 162.67c0 2.49-2.01 4.5-4.5 4.5-2.48 0-4.5-2.01-4.5-4.5 0-2.48 2.02-4.5 4.5-4.5 2.49 0 4.5 2.02 4.5 4.5z" fill="#FD6E5E"/>
        <path d="M285.03 418.21c0 2.49-2.01 4.5-4.5 4.5-2.48 0-4.5-2.01-4.5-4.5 0-2.484 2.02-4.5 4.5-4.5 2.49 0 4.5 2.016 4.5 4.5z" fill="#2C343B"/>
        <path d="M1162.55 96.96c0 1.93-1.56 3.5-3.5 3.5-1.93 0-3.5-1.57-3.5-3.5s1.57-3.5 3.5-3.5c1.94 0 3.5 1.57 3.5 3.5z" fill="#FD6E5E"/>
        <path d="M626.53 385.86c0 2.21-1.79 4-4 4s-4-1.79-4-4 1.79-4 4-4 4 1.79 4 4z" fill="#2C343B"/>
        <path d="M709.94 401.85c0 3.87-3.13 7-7 7-3.86 0-7-3.13-7-7 0-3.86 3.14-7 7-7 3.87 0 7 3.14 7 7z" fill="#FFF"/>
        <path d="M1093.94 255.19c0 1.66-1.35 3-3 3-1.66 0-3-1.34-3-3s1.34-3 3-3c1.65 0 3 1.34 3 3z" fill="#C44740"/>
        <path d="M251.75 316.17c0 1.93-1.56 3.5-3.5 3.5-1.93 0-3.5-1.57-3.5-3.5 0-1.94 1.57-3.5 3.5-3.5 1.94 0 3.5 1.56 3.5 3.5zM583.59 398.86c0 3.59-2.91 6.5-6.5 6.5s-6.5-2.91-6.5-6.5 2.91-6.5 6.5-6.5 6.5 2.91 6.5 6.5z" fill="#FFF"/>
        <path d="M469.39 279.22c0 1.65-1.34 3-3 3-1.65 0-3-1.35-3-3 0-1.66 1.35-3 3-3 1.66 0 3 1.34 3 3z" fill="#2C343B"/>
        <path d="M890.23 366.27c0 2.21-1.79 4-4 4s-4-1.79-4-4 1.79-4 4-4 4 1.79 4 4z" fill="#E6E2D2"/>
        <path d="M1149.44 101.88c0 .55-.44 1-1 1-.55 0-1-.45-1-1s.45-1 1-1c.56 0 1 .45 1 1zM224.68 258.29c0 .83-.67 1.5-1.5 1.5s-1.5-.67-1.5-1.5.67-1.5 1.5-1.5 1.5.67 1.5 1.5z" fill="#FFF"/>
        <path d="M331.07 360.91c0 1.1-.89 2-2 2-1.1 0-2-.9-2-2 0-1.11.9-2 2-2 1.11 0 2 .89 2 2z" fill="#C44740"/>
        <path d="M625.67 353.56c0 3.32-2.69 6-6 6s-6-2.68-6-6c0-3.31 2.69-6 6-6s6 2.69 6 6z" fill="#E6E2D2"/>
        <path d="M140.12 235.44c0 1.65-1.34 3-3 3s-3-1.35-3-3c0-1.66 1.34-3 3-3s3 1.34 3 3z" fill="#C44740"/>
        <path d="M332.08 393.16c0 2.76-2.24 5-5 5s-5-2.24-5-5 2.24-5 5-5 5 2.24 5 5z" fill="#FD6E5E"/>
        <path d="M1082.52 106.81c0 1.1-.89 2-2 2-1.1 0-2-.9-2-2 0-1.11.9-2 2-2 1.11 0 2 .89 2 2z" fill="#E6E2D2"/>
        <path d="M44.67 88.95c0 3.03-2.46 5.5-5.5 5.5s-5.5-2.47-5.5-5.5c0-3.04 2.46-5.5 5.5-5.5s5.5 2.46 5.5 5.5zM527.77 398.03c0 3.59-2.91 6.5-6.5 6.5s-6.5-2.91-6.5-6.5 2.91-6.5 6.5-6.5 6.5 2.91 6.5 6.5z" fill="#C44740"/>
        <path d="M158.75 158.2c0 3.04-2.47 5.5-5.5 5.5-3.04 0-5.5-2.46-5.5-5.5s2.46-5.5 5.5-5.5c3.03 0 5.5 2.46 5.5 5.5z" fill="#1E1E20"/>
        <path d="M251.79 363.22c0 .28-.22.5-.5.5-.27 0-.5-.22-.5-.5 0-.27.23-.5.5-.5.28 0 .5.23.5.5z" fill="#FFF"/>
        <path d="M1159.9 142.66c0 3.59-2.91 6.5-6.5 6.5s-6.5-2.91-6.5-6.5 2.91-6.5 6.5-6.5 6.5 2.91 6.5 6.5z" fill="#1E1E20"/>
        <path
            d="M863.08 281.13c0 1.65-1.34 3-3 3s-3-1.35-3-3c0-1.66 1.34-3 3-3s3 1.34 3 3zM1094 317.51c0 1.94-1.57 3.5-3.5 3.5s-3.5-1.56-3.5-3.5c0-1.93 1.57-3.5 3.5-3.5s3.5 1.57 3.5 3.5zM483.23 401.87c0 3.04-2.46 5.5-5.5 5.5s-5.5-2.46-5.5-5.5c0-3.03 2.46-5.5 5.5-5.5s5.5 2.47 5.5 5.5zM360.71 278.35c0 2.77-2.23 5-5 5-2.76 0-5-2.23-5-5 0-2.76 2.24-5 5-5 2.77 0 5 2.24 5 5z"
            fill="#E6E2D2"/>
        <path d="M293.91 307.51c0 3.86-3.13 7-7 7s-7-3.14-7-7c0-3.87 3.13-7 7-7s7 3.13 7 7z" fill="#2C343B"/>
        <path d="M470.17 407.83c0 3.31-2.69 6-6 6-3.32 0-6-2.69-6-6 0-3.32 2.68-6 6-6 3.31 0 6 2.68 6 6z" fill="#FFF"/>
        <path d="M182.44 322.07c0 1.93-1.57 3.5-3.5 3.5s-3.5-1.57-3.5-3.5c0-1.94 1.57-3.5 3.5-3.5s3.5 1.56 3.5 3.5zM776.73 270.21c0 3.04-2.46 5.5-5.5 5.5s-5.5-2.46-5.5-5.5c0-3.03 2.46-5.5 5.5-5.5s5.5 2.47 5.5 5.5z" fill="#E6E2D2"/>
        <path d="M912.87 383.47c0 2.76-2.24 5-5 5-2.77 0-5-2.24-5-5s2.23-5 5-5c2.76 0 5 2.24 5 5z" fill="#FFF"/>
        <path d="M1041.48 400.42c0 2.21-1.79 4-4 4-2.2 0-4-1.79-4-4s1.8-4 4-4c2.21 0 4 1.79 4 4z" fill="#E6E2D2"/>
        <path d="M205.11 169.32c0 3.87-3.14 7-7 7-3.87 0-7-3.13-7-7s3.13-7 7-7c3.86 0 7 3.13 7 7z" fill="#FD6E5E"/>
        <path d="M1070.52 136.72c0 3.32-2.69 6-6 6-3.32 0-6-2.68-6-6 0-3.31 2.68-6 6-6 3.31 0 6 2.69 6 6zM593.55 345.15c0 1.1-.9 2-2 2-1.11 0-2-.9-2-2 0-1.11.89-2 2-2 1.1 0 2 .89 2 2z" fill="#FFF"/>
        <path d="M1056.02 273.86c0 3.59-2.91 6.5-6.5 6.5s-6.5-2.91-6.5-6.5 2.91-6.5 6.5-6.5 6.5 2.91 6.5 6.5z" fill="#C44740"/>
        <path d="M167.76 121.78c0 .83-.67 1.5-1.5 1.5s-1.5-.67-1.5-1.5.67-1.5 1.5-1.5 1.5.67 1.5 1.5zM113.6 5.71c0 2.76-2.24 5-5 5s-5-2.24-5-5 2.24-5 5-5 5 2.24 5 5z" fill="#E6E2D2"/>
        <path d="M534.65 331.51c0 3.31-2.68 6-6 6-3.31 0-6-2.69-6-6s2.69-6 6-6c3.32 0 6 2.69 6 6zM461.88 375.83c0 .27-.23.5-.5.5-.28 0-.5-.23-.5-.5 0-.28.22-.5.5-.5.27 0 .5.22.5.5z" fill="#FFF"/>
        <path d="M1098.19 219.54c0 .56-.45 1-1 1-.56 0-1-.44-1-1 0-.55.44-1 1-1 .55 0 1 .45 1 1z" fill="#FD6E5E"/>
        <path d="M1050.16 305.14c0 .55-.45 1-1 1s-1-.45-1-1 .45-1 1-1 1 .45 1 1zM752.36 394.94c0 1.93-1.57 3.5-3.5 3.5s-3.5-1.57-3.5-3.5 1.57-3.5 3.5-3.5 3.5 1.57 3.5 3.5z" fill="#C44740"/>
        <path d="M910.72 350.45c0 2.48-2.01 4.5-4.5 4.5s-4.5-2.02-4.5-4.5c0-2.49 2.01-4.5 4.5-4.5s4.5 2.01 4.5 4.5z" fill="#E6E2D2"/>
        <path d="M387.86 284.52c0 1.93-1.57 3.5-3.5 3.5s-3.5-1.57-3.5-3.5 1.57-3.5 3.5-3.5 3.5 1.57 3.5 3.5z" fill="#2C343B"/>
        <path d="M1057.44 68.53c0 2.76-2.24 5-5 5-2.77 0-5-2.24-5-5s2.23-5 5-5c2.76 0 5 2.24 5 5zM128.28 149.37c0 .55-.45 1-1 1-.56 0-1-.45-1-1s.44-1 1-1c.55 0 1 .45 1 1z" fill="#E6E2D2"/>
        <path d="M704.92 314.28c0 1.38-1.12 2.5-2.5 2.5s-2.5-1.12-2.5-2.5 1.12-2.5 2.5-2.5 2.5 1.12 2.5 2.5z" fill="#C44740"/>
        <path d="M436.97 395.5c0 1.66-1.34 3-3 3-1.65 0-3-1.34-3-3s1.35-3 3-3c1.66 0 3 1.34 3 3z" fill="#FD6E5E"/>
    </g>
</svg>
