<svg width="1263" height="1229" viewBox="0 0 1263 1229" xmlns="http://www.w3.org/2000/svg">
    <title>
        render1
    </title>
    <g fill="none" fill-rule="evenodd">
        <path fill-opacity=".6" fill="#FFF" d="M683.72.306l40.707 4.852L709.982 126.3l-40.708-4.85"/>
        <path fill-opacity=".992" fill="#52616D" d="M743.69 70.464l43.665 10.89-14.757 59.184-43.666-10.89"/>
        <path fill-opacity=".757" fill="#52616D" d="M833.684 37.576l37.29 14.464-42.304 109.087-37.3-14.464"/>
        <path fill-opacity=".847" fill="#E6E2D2" d="M883.32 100.417l40.463 21.87-37.104 68.616-40.466-21.88"/>
        <path fill-opacity=".651" fill="#FFF" d="M944.537 138.83l36.586 26.192-43.662 60.984-36.586-26.202"/>
        <path fill-opacity=".906" fill="#FD6E5E" d="M986.11 197.342l34.482 31.933-36.005 38.886-34.492-31.93"/>
        <path fill-opacity=".702" fill="#52616D" d="M1049.94 232.546l30.85 36.767-55.155 46.28-30.85-36.767"/>
        <path fill-opacity=".843" fill="#E6E2D2" d="M1136.646 260.987l25.998 40.344-102.55 66.086-25.997-40.345"/>
        <path fill-opacity=".624" fill="#C44740" d="M1167.982 335.943l17.288 36.072-99.207 47.526-17.278-36.07"/>
        <path fill-opacity=".976" fill="#FFF" d="M1213.642 399.443l13.253 39.853-119.557 39.776-13.252-39.852"/>
        <path fill-opacity=".827" fill="#C44740" d="M1190.595 481.14l8.94 45.126-78.477 15.542-8.94-45.126"/>
        <path fill-opacity=".686" fill="#E6E2D2" d="M1246.046 551.333l2.93 41.897-122.7 8.58-2.93-41.897"/>
        <path fill-opacity=".922" fill="#E6E2D2" d="M1262.21 629.646l-2.352 41.936-135.79-7.596 2.35-41.926"/>
        <path fill-opacity=".855" fill="#C44740" d="M1229.156 702.298l-8.123 44.255-107.213-19.68 8.122-44.254"/>
        <path fill-opacity=".737" fill="#FD6E5E" d="M1215.654 779.87l-12.1 38.126-106.752-33.866 12.09-38.126"/>
        <path fill-opacity=".784" fill="#2C343B" d="M1203.552 856.81l-17.614 38.122-114.385-52.85 17.624-38.12"/>
        <path fill-opacity=".627" fill="#FFF" d="M1158.93 921.682l-21.207 33.922-97.52-60.946 21.197-33.92"/>
        <path fill-opacity=".831" fill="#52616D" d="M1131.898 994.866l-28.437 34.878-103.064-84.065 28.437-34.87"/>
        <path fill-opacity=".953" fill="#2C343B" d="M1019.668 992.338l-31.137 29.654-31.72-33.308 31.137-29.654"/>
        <path fill-opacity=".725" fill="#FFF" d="M975.12 1042.528l-37.826 27.887-31.453-42.66 37.838-27.888"/>
        <path fill-opacity=".675" fill="#52616D" d="M927.53 1104.95l-34.915 19.513-37.57-67.213 34.923-19.524"/>
        <path fill-opacity=".945" fill="#52616D" d="M865.14 1138.804l-38.95 15.726-29.215-72.32 38.947-15.734"/>
        <path fill-opacity=".671" fill="#FFF" d="M797.754 1150.554l-47.372 12.515-16.605-62.846 47.373-12.515"/>
        <path fill-opacity=".824" fill="#FD6E5E" d="M725.43 1171.79l-39.648 5.29-9.123-68.39 39.646-5.29"/>
        <path fill-opacity=".961" fill="#E6E2D2" d="M658.29 1228.21l-45.998.33-.823-118 46-.32"/>
        <path fill-opacity=".608" fill="#E6E2D2" d="M582.293 1209.808l-43.69-5.215 11.963-100.29 43.69 5.206"/>
        <path fill-opacity=".922" fill="#52616D" d="M504.31 1218.66l-44.635-11.134 29.272-117.398 44.634 11.123"/>
        <path fill-opacity=".753" fill="#FFF" d="M430.266 1189.653l-38.227-14.82 40.86-105.356 38.227 14.83"/>
        <path fill-opacity=".671" fill="#FFF" d="M361.23 1159.566l-37.83-20.45 53.268-98.527 37.828 20.45"/>
        <path fill-opacity=".714" fill="#52616D" d="M336.766 1067.618l-39.024-27.935 25.607-35.774 39.033 27.934"/>
        <path fill-opacity=".753" fill="#2C343B" d="M271.743 1035.015l-31.554-29.21 38.726-41.824 31.554 29.21"/>
        <path fill-opacity=".984" fill="#FD6E5E" d="M177.87 1024.347l-28.28-33.71 88.098-73.915 28.28 33.7"/>
        <path fill-opacity=".824" fill="#FFF" d="M179.778 932.36l-23.827-36.978 47.07-30.337 23.837 36.987"/>
        <path fill-opacity=".761" fill="#52616D" d="M156.418 869.947l-21.174-44.19 38.778-18.58 21.174 44.19"/>
        <path fill-opacity=".984" fill="#FD6E5E" d="M56.77 831.184L41.935 786.59l111.974-37.25 14.837 44.592"/>
        <path fill-opacity=".682" fill="#E6E2D2" d="M41.72 753.996l-8.353-42.18 107.902-21.37 8.352 42.18"/>
        <path fill-opacity=".867" fill="#E6E2D2" d="M4.26 683.778l-3.418-48.88 134.672-9.418 3.418 48.88"/>
        <path fill-opacity=".882" fill="#E6E2D2" d="M6.794 602.022l2.4-42.932 128.797 7.203-2.4 42.932"/>
        <path fill-opacity=".976" fill="#52616D" d="M69.893 537.313l8.84-48.194 69.835 12.818-8.84 48.195"/>
        <path fill-opacity=".984" fill="#52616D" d="M80.743 464.96l13.905-43.847 71.496 22.678-13.915 43.848"/>
        <path fill-opacity=".682" fill="#FFF" d="M57.637 375.794l19.294-41.757 114.386 52.85-19.294 41.757"/>
        <path fill-opacity=".91" fill="#C44740" d="M97.012 309.416l24.91-39.855 101.764 63.587-24.91 39.865"/>
        <path fill-opacity=".784" fill="#52616D" d="M203.78 292.757l25.28-30.998 30.998 25.278-25.28 31"/>
        <path fill-opacity=".914" fill="#52616D" d="M233.04 229.372l31.86-30.346 40.69 42.725-31.87 30.348"/>
        <path fill-opacity=".702" fill="#FFF" d="M258.444 147.12l35.415-26.114 61.12 82.908-35.413 26.114"/>
        <path fill-opacity=".678" fill="#52616D" d="M306.36 78.56l37.537-20.98 64.394 115.23-37.527 20.968"/>
        <path fill-opacity=".89" fill="#C44740" d="M375.63 38.02l38.02-15.36 50.94 126.094-38.01 15.358"/>
        <path fill-opacity=".851" fill="#52616D" d="M460.568 56.39l42.54-11.246 22.737 86.054-42.54 11.235"/>
        <path fill-opacity=".639" fill="#E6E2D2" d="M532.538 47.427l44.603-5.956 10.708 80.29-44.604 5.956"/>
        <path fill-opacity=".847" fill="#2C343B" d="M604.168 63.57l45.99-.33.407 57-46 .32"/>
    </g>
</svg>
