<?xml version="1.0" encoding="UTF-8"?>
<svg width="41px" height="41px" viewBox="0 0 41 41" version="1.1" xmlns="http://www.w3.org/2000/svg" xmlns:xlink="http://www.w3.org/1999/xlink">
    <!-- Generator: Sketch 42 (36781) - http://www.bohemiancoding.com/sketch -->
    <title>linkedin</title>
    <desc>Created with Sketch.</desc>
    <defs></defs>
    <g id="Welcome" stroke="none" stroke-width="1" fill="none" fill-rule="evenodd">
        <g id="linkedin">
            <g id="Group">
                <ellipse id="Oval" fill="#2C343B" cx="20.3541416" cy="20.534886" rx="20.3541416" ry="20.1755965"></ellipse>
                <path d="M32.5155398,22.1583421 L32.5155398,30.476307 L27.6503274,30.476307 L27.6503274,22.7157982 C27.6503274,20.7672193 26.947885,19.4365175 25.1863363,19.4365175 C23.8420442,19.4365175 23.0434513,20.3324035 22.6907788,21.1998772 C22.5626991,21.5098947 22.5296814,21.9403947 22.5296814,22.3752105 L22.5296814,30.4759474 L17.6641062,30.4759474 C17.6641062,30.4759474 17.7294159,17.3322105 17.6641062,15.9716579 L22.5300442,15.9716579 L22.5300442,18.0270526 C22.5202478,18.0432368 22.5064602,18.0590614 22.4977522,18.0745263 L22.5300442,18.0745263 L22.5300442,18.0270526 C23.1766106,17.0408947 24.3296903,15.6310702 26.9148673,15.6310702 C30.1157699,15.6310702 32.5155398,17.7040877 32.5155398,22.1583421 L32.5155398,22.1583421 Z M12.5743009,8.98007895 C10.9099912,8.98007895 9.82113274,10.0629825 9.82113274,11.4857544 C9.82113274,12.8783158 10.8784248,13.9925088 12.5104425,13.9925088 L12.5420088,13.9925088 C14.2389735,13.9925088 15.2940885,12.8783158 15.2940885,11.4857544 C15.2617965,10.0629825 14.2389735,8.98007895 12.5743009,8.98007895 L12.5743009,8.98007895 Z M10.1103097,30.476307 L14.9740708,30.476307 L14.9740708,15.9716579 L10.1103097,15.9716579 L10.1103097,30.476307 Z" id="Shape" fill="#FFFFFF"></path>
            </g>
        </g>
    </g>
</svg>