<svg width="1241" height="143" viewBox="0 0 1241 143" xmlns="http://www.w3.org/2000/svg">
    <title>
        render7
    </title>
    <g fill="none" fill-rule="evenodd">
        <path fill-opacity=".722" fill="#FFF" d="M0 0h36v110H0"/>
        <path fill-opacity=".961" fill="#FD6E5E" d="M50 0h32v113H50"/>
        <path fill-opacity=".957" fill="#52616D" d="M100 0h44v122h-44"/>
        <path fill-opacity=".659" fill="#C44740" d="M150 0h37v113h-37"/>
        <path fill-opacity=".733" fill="#52616D" d="M200 0h34v108h-34"/>
        <path fill-opacity=".62" fill="#2C343B" d="M250 0h33v98h-33"/>
        <path fill-opacity=".933" fill="#E6E2D2" d="M300 0h41v93h-41"/>
        <path fill-opacity=".78" fill="#FFF" d="M350 0h41v140h-41"/>
        <path fill-opacity=".647" fill="#E6E2D2" d="M400 0h44v120h-44"/>
        <path fill-opacity=".702" fill="#2C343B" d="M450 0h41v132h-41"/>
        <path fill-opacity=".804" fill="#1E1E20" d="M500 0h36v87h-36"/>
        <path fill-opacity=".949" fill="#E6E2D2" d="M550 0h36v84h-36"/>
        <path fill-opacity=".659" fill="#FD6E5E" d="M600 0h36v115h-36"/>
        <path fill-opacity=".894" fill="#E6E2D2" d="M650 0h31v126h-31"/>
        <path fill-opacity=".804" fill="#E6E2D2" d="M700 0h35v143h-35"/>
        <path fill-opacity=".702" fill="#52616D" d="M750 0h35v87h-35"/>
        <path fill-opacity=".875" fill="#52616D" d="M800 0h41v115h-41"/>
        <path fill-opacity=".992" fill="#FFF" d="M850 0h41v100h-41"/>
        <path fill-opacity=".663" fill="#FFF" d="M900 0h36v76h-36"/>
        <path fill-opacity=".922" fill="#FFF" d="M950 0h44v78h-44"/>
        <path fill-opacity=".627" fill="#E6E2D2" d="M1000 0h37v119h-37"/>
        <path fill-opacity=".671" fill="#FFF" d="M1050 0h34v122h-34"/>
        <path fill-opacity=".984" fill="#1E1E20" d="M1100 0h34v106h-34"/>
        <path fill-opacity=".725" fill="#1E1E20" d="M1150 0h44v119h-44"/>
        <path fill-opacity=".953" fill="#E6E2D2" d="M1200 0h41v107h-41"/>
    </g>
</svg>
