<svg width="1636" height="149" viewBox="0 0 1636 149" xmlns="http://www.w3.org/2000/svg">
    <title>
        render1
    </title>
    <g fill="none" fill-rule="evenodd">
        <path fill-opacity=".694" fill="#2C343B" d="M0 149h43V18H0"/>
        <path fill-opacity=".592" fill="#E6E2D2" d="M50 149h32V35H50"/>
        <path fill-opacity=".796" fill="#1E1E20" d="M100 149h36V55h-36"/>
        <path fill-opacity=".718" fill="#52616D" d="M150 149h43V21h-43"/>
        <path fill-opacity=".616" fill="#1E1E20" d="M200 149h35V7h-35"/>
        <path fill-opacity=".871" fill="#C44740" d="M250 149h36V20h-36"/>
        <path fill-opacity=".929" fill="#2C343B" d="M300 149h42V40h-42"/>
        <path fill-opacity=".925" fill="#52616D" d="M350 149h31V41h-31"/>
        <path fill-opacity=".976" fill="#FFF" d="M400 149h35V72h-35"/>
        <path fill-opacity=".784" fill="#FFF" d="M450 149h37V26h-37"/>
        <path fill-opacity=".976" fill="#C44740" d="M500 149h41V37h-41"/>
        <path fill-opacity=".694" fill="#E6E2D2" d="M550 149h44V24h-44"/>
        <path fill-opacity=".816" fill="#FFF" d="M600 149h30V45h-30"/>
        <path fill-opacity=".686" fill="#C44740" d="M650 149h35V15h-35"/>
        <path fill-opacity=".643" fill="#2C343B" d="M700 149h39V3h-39"/>
        <path fill-opacity=".647" fill="#52616D" d="M750 149h36V7h-36"/>
        <path fill-opacity=".624" fill="#FFF" d="M800 149h35V0h-35"/>
        <path fill-opacity=".706" fill="#FD6E5E" d="M850 149h42V72h-42"/>
        <path fill-opacity=".588" fill="#FFF" d="M900 149h34V52h-34"/>
        <path fill-opacity=".627" fill="#FFF" d="M950 149h39V44h-39"/>
        <path fill-opacity=".722" fill="#C44740" d="M1000 149h30V66h-30"/>
        <path fill-opacity=".694" fill="#1E1E20" d="M1050 149h41V8h-41"/>
        <path fill-opacity=".776" fill="#E6E2D2" d="M1100 149h44V72h-44"/>
        <path fill-opacity=".773" fill="#1E1E20" d="M1150 149h40V55h-40"/>
        <path fill-opacity=".82" fill="#1E1E20" d="M1200 149h34V10h-34"/>
        <path fill-opacity=".631" fill="#FFF" d="M1250 149h41V7h-41"/>
        <path fill-opacity=".953" fill="#E6E2D2" d="M1300 149h31V55h-31"/>
        <path fill-opacity=".957" fill="#1E1E20" d="M1350 149h44V15h-44"/>
        <path fill-opacity=".694" fill="#C44740" d="M1400 149h38V10h-38"/>
        <path fill-opacity=".792" fill="#FD6E5E" d="M1450 149h34V70h-34"/>
        <path fill-opacity=".765" fill="#52616D" d="M1500 149h31V26h-31"/>
        <path fill-opacity=".863" fill="#FFF" d="M1550 149h36V57h-36"/>
        <path fill-opacity=".882" fill="#FFF" d="M1600 149h36V58h-36"/>
    </g>
</svg>
