<svg width="1636" height="149" viewBox="0 0 1636 149" xmlns="http://www.w3.org/2000/svg">
    <title>
        render1
    </title>
    <g fill="none" fill-rule="evenodd">
        <path fill-opacity=".694" fill="#2C343B" d="M0 0h43v131H0"/>
        <path fill-opacity=".592" fill="#E6E2D2" d="M50 0h32v114H50"/>
        <path fill-opacity=".796" fill="#1E1E20" d="M100 0h36v94h-36"/>
        <path fill-opacity=".718" fill="#52616D" d="M150 0h43v128h-43"/>
        <path fill-opacity=".616" fill="#1E1E20" d="M200 0h35v142h-35"/>
        <path fill-opacity=".871" fill="#C44740" d="M250 0h36v129h-36"/>
        <path fill-opacity=".929" fill="#2C343B" d="M300 0h42v109h-42"/>
        <path fill-opacity=".925" fill="#52616D" d="M350 0h31v108h-31"/>
        <path fill-opacity=".976" fill="#FFF" d="M400 0h35v77h-35"/>
        <path fill-opacity=".784" fill="#FFF" d="M450 0h37v123h-37"/>
        <path fill-opacity=".976" fill="#C44740" d="M500 0h41v112h-41"/>
        <path fill-opacity=".694" fill="#E6E2D2" d="M550 0h44v125h-44"/>
        <path fill-opacity=".816" fill="#FFF" d="M600 0h30v104h-30"/>
        <path fill-opacity=".686" fill="#C44740" d="M650 0h35v134h-35"/>
        <path fill-opacity=".643" fill="#2C343B" d="M700 0h39v146h-39"/>
        <path fill-opacity=".647" fill="#52616D" d="M750 0h36v142h-36"/>
        <path fill-opacity=".624" fill="#FFF" d="M800 0h35v149h-35"/>
        <path fill-opacity=".706" fill="#FD6E5E" d="M850 0h42v77h-42"/>
        <path fill-opacity=".588" fill="#FFF" d="M900 0h34v97h-34"/>
        <path fill-opacity=".627" fill="#FFF" d="M950 0h39v105h-39"/>
        <path fill-opacity=".722" fill="#C44740" d="M1000 0h30v83h-30"/>
        <path fill-opacity=".694" fill="#1E1E20" d="M1050 0h41v141h-41"/>
        <path fill-opacity=".776" fill="#E6E2D2" d="M1100 0h44v77h-44"/>
        <path fill-opacity=".773" fill="#1E1E20" d="M1150 0h40v94h-40"/>
        <path fill-opacity=".82" fill="#1E1E20" d="M1200 0h34v139h-34"/>
        <path fill-opacity=".631" fill="#FFF" d="M1250 0h41v142h-41"/>
        <path fill-opacity=".953" fill="#E6E2D2" d="M1300 0h31v94h-31"/>
        <path fill-opacity=".957" fill="#1E1E20" d="M1350 0h44v134h-44"/>
        <path fill-opacity=".694" fill="#C44740" d="M1400 0h38v139h-38"/>
        <path fill-opacity=".792" fill="#FD6E5E" d="M1450 0h34v79h-34"/>
        <path fill-opacity=".765" fill="#52616D" d="M1500 0h31v123h-31"/>
        <path fill-opacity=".863" fill="#FFF" d="M1550 0h36v92h-36"/>
        <path fill-opacity=".882" fill="#FFF" d="M1600 0h36v91h-36"/>
    </g>
</svg>
