<svg width="1261" height="195" viewBox="0 0 1261 195" xmlns="http://www.w3.org/2000/svg">
    <title>
        render3
    </title>
    <g fill="none" fill-rule="evenodd">
        <path fill="#1E1E20" d="M0 0h3v137.416H0"/>
        <path fill="#2C343B" d="M15 0h4v163.59h-4"/>
        <path fill="#E6E2D2" d="M30 0h3v153.12h-3"/>
        <path fill="#52616D" d="M45 0h1v172.752h-1"/>
        <path fill="#2C343B" d="M60 0h4v108.624h-4"/>
        <path fill="#52616D" d="M75 0h2v137.416h-2"/>
        <path fill="#2C343B" d="M90 0h1v184.53h-1"/>
        <path fill="#FFF" d="M105 0h3v134.8h-3M120 0h1v185.84h-1"/>
        <path fill="#C44740" d="M135 0h3v167.517h-3"/>
        <path fill="#52616D" d="M150 0h2v179.295h-2"/>
        <path fill="#FD6E5E" d="M165 0h3v153.12h-3"/>
        <path fill="#FFF" d="M180 0h3v112.55h-3"/>
        <path fill="#2C343B" d="M195 0h1v191.074h-1"/>
        <path fill="#FFF" d="M210 0h4v192.383h-4"/>
        <path fill="#52616D" d="M225 0h3v180.604h-3"/>
        <path fill="#FFF" d="M240 0h3v177.987h-3M255 0h4v166.208h-4"/>
        <path fill="#52616D" d="M270 0h3v155.738h-3"/>
        <path fill="#FD6E5E" d="M285 0h3v155.738h-3"/>
        <path fill="#2C343B" d="M300 0h2v141.342h-2"/>
        <path fill="#52616D" d="M315 0h2v136.107h-2"/>
        <path fill="#FFF" d="M330 0h2v119.094h-2"/>
        <path fill="#E6E2D2" d="M345 0h1v157.047h-1"/>
        <path fill="#52616D" d="M360 0h2v100.772h-2"/>
        <path fill="#1E1E20" d="M375 0h1v129.564h-1"/>
        <path fill="#52616D" d="M390 0h4v107.315h-4"/>
        <path fill="#FFF" d="M405 0h4v103.39h-4"/>
        <path fill="#52616D" d="M420 0h2v179.295h-2"/>
        <path fill="#FFF" d="M435 0h1v103.39h-1"/>
        <path fill="#2C343B" d="M450 0h1v163.59h-1"/>
        <path fill="#FD6E5E" d="M465 0h3v181.913h-3"/>
        <path fill="#C44740" d="M480 0h1v147.886h-1"/>
        <path fill="#1E1E20" d="M495 0h1v112.55h-1"/>
        <path fill="#52616D" d="M510 0h4v195h-4"/>
        <path fill="#1E1E20" d="M525 0h3v155.738h-3"/>
        <path fill="#C44740" d="M540 0h1v150.503h-1M555 0h3v117.785h-3M570 0h2v134.8h-2"/>
        <path fill="#FD6E5E" d="M585 0h1v140.034h-1"/>
        <path fill="#52616D" d="M600 0h1v113.86h-1"/>
        <path fill="#E6E2D2" d="M615 0h2v166.208h-2M630 0h3v167.517h-3"/>
        <path fill="#2C343B" d="M645 0h3v193.69h-3"/>
        <path fill="#FFF" d="M660 0h1v146.577h-1"/>
        <path fill="#52616D" d="M675 0h4v171.443h-4"/>
        <path fill="#2C343B" d="M690 0h3v103.39h-3"/>
        <path fill="#FD6E5E" d="M705 0h1v193.69h-1"/>
        <path fill="#C44740" d="M720 0h3v115.168h-3"/>
        <path fill="#FFF" d="M735 0h4v133.49h-4"/>
        <path fill="#52616D" d="M750 0h2v174.06h-2M765 0h4v132.18h-4"/>
        <path fill="#E6E2D2" d="M780 0h3v167.517h-3M795 0h3v140.034h-3M810 0h4v158.356h-4"/>
        <path fill="#FFF" d="M825 0h3v181.913h-3M840 0h3v192.383h-3"/>
        <path fill="#52616D" d="M855 0h1v167.517h-1"/>
        <path fill="#FD6E5E" d="M870 0h2v112.55h-2"/>
        <path fill="#FFF" d="M885 0h2v185.84h-2"/>
        <path fill="#52616D" d="M900 0h4v174.06h-4"/>
        <path fill="#FD6E5E" d="M915 0h1v100.772h-1"/>
        <path fill="#C44740" d="M930 0h2v121.71h-2"/>
        <path fill="#1E1E20" d="M945 0h2v163.59h-2"/>
        <path fill="#E6E2D2" d="M960 0h3v99.463h-3"/>
        <path fill="#1E1E20" d="M975 0h4v109.933h-4"/>
        <path fill="#FFF" d="M990 0h3v141.342h-3"/>
        <path fill="#E6E2D2" d="M1005 0h1v108.624h-1"/>
        <path fill="#C44740" d="M1020 0h2v133.49h-2"/>
        <path fill="#FD6E5E" d="M1035 0h2v125.638h-2"/>
        <path fill="#E6E2D2" d="M1050 0h2v151.812h-2"/>
        <path fill="#52616D" d="M1065 0h2v128.255h-2M1080 0h1v116.477h-1"/>
        <path fill="#E6E2D2" d="M1095 0h2v151.812h-2"/>
        <path fill="#2C343B" d="M1110 0h3v106.007h-3"/>
        <path fill="#FFF" d="M1125 0h1v124.33h-1"/>
        <path fill="#52616D" d="M1140 0h4v195h-4"/>
        <path fill="#1E1E20" d="M1155 0h2v140.034h-2"/>
        <path fill="#52616D" d="M1170 0h2v180.604h-2"/>
        <path fill="#E6E2D2" d="M1185 0h1v157.047h-1"/>
        <path fill="#FFF" d="M1200 0h2v159.664h-2M1215 0h2v179.295h-2M1230 0h4v162.282h-4"/>
        <path fill="#E6E2D2" d="M1245 0h1v100.772h-1"/>
        <path fill="#C44740" d="M1260 0h1v166.208h-1"/>
    </g>
</svg>
