<svg width="1711" height="149" viewBox="0 0 1711 149" xmlns="http://www.w3.org/2000/svg">
    <title>
        render2
    </title>
    <g fill="none" fill-rule="evenodd">
        <path fill="#52616D" d="M0 149h2V43H0"/>
        <path fill="#FD6E5E" d="M15 149h2V62h-2M30 149h2V57h-2"/>
        <path fill="#52616D" d="M45 149h2V74h-2M60 149h1V43h-1"/>
        <path fill="#1E1E20" d="M75 149h1V10h-1"/>
        <path fill="#E6E2D2" d="M90 149h2V51h-2"/>
        <path fill="#2C343B" d="M105 149h2V5h-2M120 149h1V52h-1"/>
        <path fill="#FFF" d="M135 149h1V74h-1"/>
        <path fill="#E6E2D2" d="M150 149h1V35h-1"/>
        <path fill="#C44740" d="M165 149h1V43h-1"/>
        <path fill="#FD6E5E" d="M180 149h2V71h-2"/>
        <path fill="#1E1E20" d="M195 149h2V40h-2"/>
        <path fill="#2C343B" d="M210 149h2V0h-2"/>
        <path fill="#FFF" d="M225 149h2V39h-2"/>
        <path fill="#FD6E5E" d="M240 149h1V42h-1"/>
        <path fill="#52616D" d="M255 149h2V57h-2M270 149h1V62h-1"/>
        <path fill="#FFF" d="M285 149h1V11h-1"/>
        <path fill="#52616D" d="M300 149h1V35h-1M315 149h1V16h-1"/>
        <path fill="#E6E2D2" d="M330 149h1V54h-1"/>
        <path fill="#2C343B" d="M345 149h1V41h-1"/>
        <path fill="#1E1E20" d="M360 149h1V74h-1"/>
        <path fill="#E6E2D2" d="M375 149h2V6h-2"/>
        <path fill="#52616D" d="M390 149h2V6h-2"/>
        <path fill="#E6E2D2" d="M405 149h1V58h-1"/>
        <path fill="#FFF" d="M420 149h2V73h-2M435 149h2V39h-2M450 149h1V52h-1"/>
        <path fill="#E6E2D2" d="M465 149h1V31h-1"/>
        <path fill="#2C343B" d="M480 149h1V57h-1"/>
        <path fill="#1E1E20" d="M495 149h2V17h-2"/>
        <path fill="#FFF" d="M510 149h2V52h-2"/>
        <path fill="#52616D" d="M525 149h2V2h-2"/>
        <path fill="#E6E2D2" d="M540 149h2V26h-2"/>
        <path fill="#FFF" d="M555 149h2V0h-2"/>
        <path fill="#52616D" d="M570 149h2V52h-2"/>
        <path fill="#FFF" d="M585 149h2V12h-2"/>
        <path fill="#FD6E5E" d="M600 149h2V49h-2"/>
        <path fill="#1E1E20" d="M615 149h1V66h-1"/>
        <path fill="#E6E2D2" d="M630 149h2V23h-2M645 149h2V63h-2"/>
        <path fill="#52616D" d="M660 149h2V64h-2"/>
        <path fill="#FD6E5E" d="M675 149h1V5h-1"/>
        <path fill="#FFF" d="M690 149h2V21h-2"/>
        <path fill="#C44740" d="M705 149h2V12h-2"/>
        <path fill="#1E1E20" d="M720 149h2V67h-2"/>
        <path fill="#E6E2D2" d="M735 149h2V15h-2"/>
        <path fill="#FD6E5E" d="M750 149h2V72h-2"/>
        <path fill="#E6E2D2" d="M765 149h2V22h-2"/>
        <path fill="#FFF" d="M780 149h1V40h-1M795 149h1V2h-1"/>
        <path fill="#1E1E20" d="M810 149h1V15h-1"/>
        <path fill="#2C343B" d="M825 149h1V6h-1"/>
        <path fill="#C44740" d="M840 149h1V53h-1"/>
        <path fill="#FFF" d="M855 149h2V62h-2"/>
        <path fill="#2C343B" d="M870 149h2V15h-2M885 149h1V58h-1"/>
        <path fill="#52616D" d="M900 149h2V48h-2"/>
        <path fill="#1E1E20" d="M915 149h2V1h-2"/>
        <path fill="#FD6E5E" d="M930 149h2V19h-2"/>
        <path fill="#E6E2D2" d="M945 149h2V66h-2M960 149h1V5h-1M975 149h2V38h-2M990 149h2V8h-2"/>
        <path fill="#FFF" d="M1005 149h2V41h-2"/>
        <path fill="#2C343B" d="M1020 149h2V63h-2"/>
        <path fill="#C44740" d="M1035 149h1V53h-1"/>
        <path fill="#2C343B" d="M1050 149h2V47h-2"/>
        <path fill="#FFF" d="M1065 149h1V0h-1"/>
        <path fill="#C44740" d="M1080 149h1V51h-1M1095 149h1V26h-1"/>
        <path fill="#1E1E20" d="M1110 149h2V64h-2"/>
        <path fill="#52616D" d="M1125 149h1V57h-1"/>
        <path fill="#2C343B" d="M1140 149h2V29h-2"/>
        <path fill="#E6E2D2" d="M1155 149h2V36h-2"/>
        <path fill="#C44740" d="M1170 149h1V18h-1"/>
        <path fill="#FFF" d="M1185 149h1V70h-1"/>
        <path fill="#E6E2D2" d="M1200 149h2V60h-2"/>
        <path fill="#FFF" d="M1215 149h1V22h-1"/>
        <path fill="#1E1E20" d="M1230 149h1V0h-1"/>
        <path fill="#52616D" d="M1245 149h1V35h-1"/>
        <path fill="#FD6E5E" d="M1260 149h2V6h-2"/>
        <path fill="#E6E2D2" d="M1275 149h2V74h-2M1290 149h2V15h-2"/>
        <path fill="#FD6E5E" d="M1305 149h2V13h-2"/>
        <path fill="#E6E2D2" d="M1320 149h1V2h-1"/>
        <path fill="#52616D" d="M1335 149h2V52h-2"/>
        <path fill="#E6E2D2" d="M1350 149h2V50h-2M1365 149h2V9h-2M1380 149h2V50h-2M1395 149h2V73h-2M1410 149h1V9h-1"/>
        <path fill="#FFF" d="M1425 149h1V43h-1"/>
        <path fill="#1E1E20" d="M1440 149h1V14h-1"/>
        <path fill="#FFF" d="M1455 149h1V23h-1"/>
        <path fill="#FD6E5E" d="M1470 149h1V1h-1"/>
        <path fill="#FFF" d="M1485 149h2V58h-2"/>
        <path fill="#E6E2D2" d="M1500 149h2V58h-2"/>
        <path fill="#FFF" d="M1515 149h2V2h-2"/>
        <path fill="#52616D" d="M1530 149h2V61h-2"/>
        <path fill="#2C343B" d="M1545 149h2V12h-2"/>
        <path fill="#FD6E5E" d="M1560 149h2V63h-2"/>
        <path fill="#52616D" d="M1575 149h2V21h-2"/>
        <path fill="#FFF" d="M1590 149h1V32h-1"/>
        <path fill="#FD6E5E" d="M1605 149h1V42h-1"/>
        <path fill="#52616D" d="M1620 149h2V17h-2"/>
        <path fill="#2C343B" d="M1635 149h1V25h-1"/>
        <path fill="#C44740" d="M1650 149h2V57h-2M1665 149h2V39h-2"/>
        <path fill="#52616D" d="M1680 149h2V62h-2"/>
        <path fill="#C44740" d="M1695 149h2V11h-2"/>
        <path fill="#E6E2D2" d="M1710 149h1V10h-1"/>
    </g>
</svg>
