<?xml version="1.0" encoding="utf-8"?>
<!-- Generator: Adobe Illustrator 16.0.3, SVG Export Plug-In . SVG Version: 6.00 Build 0)  -->
<!DOCTYPE svg PUBLIC "-//W3C//DTD SVG 1.1//EN" "http://www.w3.org/Graphics/SVG/1.1/DTD/svg11.dtd">
<svg version="1.1" id="Layer_1" xmlns="http://www.w3.org/2000/svg" xmlns:xlink="http://www.w3.org/1999/xlink" x="0px" y="0px"
	 width="100px" height="100px" viewBox="0 0 100 100" enable-background="new 0 0 100 100" xml:space="preserve">
<path fill="#A7A9AC" d="M44.899,3.75c3.716,10.021,3.981,34.816,3.45,44.323c-20.275,1.381-40.114-0.879-46.392-3.264
	c3.767-5.022,6.906-8.538,6.906-9.668C8.11,32.503,6.101,22.208,6.101,19.947c5.273,2.386,14.958,5.569,19.156,6.174
	c-2.457-7.304-3.963-14.336-6.977-18.73c4.897,0.627,12.43,3.39,15.569,3.013S42.388,8.145,44.899,3.75z"/>
<path fill="#939598" d="M55.231,3.75c-3.717,10.021-3.982,34.816-3.451,44.323c20.275,1.381,40.114-0.879,46.392-3.264
	c-3.767-5.022-6.906-8.538-6.906-9.668c0.754-2.637,2.764-12.933,2.764-15.193c-5.273,2.386-14.959,5.569-19.156,6.175
	c2.457-7.305,3.964-14.336,6.977-18.73c-4.897,0.627-12.431,3.39-15.569,3.013C63.141,10.028,57.742,8.145,55.231,3.75z"/>
<path fill="#939598" d="M44.714,96.001c3.716-10.021,3.981-34.816,3.45-44.323c-20.275-1.382-40.113,0.877-46.392,3.264
	c3.767,5.022,6.906,8.537,6.906,9.668c-0.753,2.638-2.762,12.933-2.762,15.192c5.273-2.384,14.958-5.568,19.156-6.174
	c-2.457,7.305-3.963,14.336-6.977,18.731c4.897-0.629,12.431-3.392,15.57-3.014C36.804,89.722,42.203,91.605,44.714,96.001z"/>
<path fill="#939598" d="M55.231,96.045c-3.717-10.021-3.982-34.816-3.451-44.323c20.275-1.381,40.114,0.88,46.392,3.264
	c-3.767,5.024-6.906,8.537-6.906,9.668c0.754,2.638,2.764,12.935,2.764,15.194c-5.273-2.386-14.959-5.569-19.156-6.176
	c2.457,7.306,3.964,14.336,6.977,18.731c-4.897-0.629-12.431-3.391-15.569-3.014C63.141,89.766,57.742,91.649,55.231,96.045z"/>
<g>
	<path fill="#FFFFFF" d="M42.108,11.41c2.916,11.049,4.423,23.981,3.293,34.152c-12.305,0.628-27.497,1.13-37.542-3.014
		c5.901-6.277,5.901-6.277,2.511-17.453c5.273,2.009,13.812,4.395,15.57,4.771c1.757,0.376,3.348,0.376,2.239-2.512
		c-0.983-4.269-3.083-12.941-3.997-15.945C31.213,13.669,35.047,15.176,42.108,11.41z"/>
	<path fill="#FFFFFF" d="M58.021,11.41c-2.917,11.049-4.423,23.981-3.293,34.151c12.305,0.628,27.497,1.13,37.542-3.013
		c-5.902-6.277-5.902-6.277-2.511-17.453c-5.273,2.009-13.812,4.395-15.57,4.771c-1.758,0.376-3.348,0.376-2.238-2.512
		c0.983-4.269,3.083-12.941,3.997-15.945C68.917,13.669,65.082,15.176,58.021,11.41z"/>
	<path fill="#FFFFFF" d="M41.923,88.342c2.917-11.051,4.423-23.983,3.293-34.153c-12.305-0.627-27.498-1.131-37.542,3.013
		c5.901,6.277,5.901,6.277,2.511,17.454c5.274-2.011,13.811-4.395,15.57-4.772c1.757-0.376,3.348-0.376,2.239,2.513
		c-0.984,4.267-3.083,12.94-3.998,15.946C31.028,86.081,34.862,84.575,41.923,88.342z"/>
	<path fill="#FFFFFF" d="M58.021,88.386c-2.917-11.051-4.423-23.983-3.293-34.153c12.305-0.627,27.497-1.129,37.542,3.013
		c-5.902,6.277-5.902,6.277-2.511,17.454c-5.273-2.011-13.812-4.395-15.57-4.771c-1.758-0.378-3.348-0.378-2.238,2.511
		c0.983,4.269,3.083,12.94,3.997,15.946C68.917,86.126,65.082,84.619,58.021,88.386z"/>
</g>
<g>
	<ellipse fill="#414042" cx="37.419" cy="23.4" rx="4.689" ry="4.708"/>
	<ellipse fill="#414042" cx="23.533" cy="38.216" rx="4.646" ry="4.332"/>
	<ellipse fill="#414042" cx="62.711" cy="23.4" rx="4.689" ry="4.708"/>
	<ellipse fill="#414042" cx="76.597" cy="38.216" rx="4.646" ry="4.332"/>
	<ellipse fill="#414042" cx="37.233" cy="76.35" rx="4.689" ry="4.707"/>
	<ellipse fill="#414042" cx="23.348" cy="61.533" rx="4.646" ry="4.332"/>
	<ellipse fill="#414042" cx="62.711" cy="76.395" rx="4.689" ry="4.71"/>
	<ellipse fill="#414042" cx="76.597" cy="61.577" rx="4.646" ry="4.332"/>
</g>
<g>
	<ellipse fill="#6D6E71" cx="40.185" cy="40.979" rx="3.792" ry="3.83"/>
	<ellipse fill="#6D6E71" cx="59.945" cy="40.979" rx="3.792" ry="3.83"/>
	<ellipse fill="#6D6E71" cx="40" cy="58.771" rx="3.792" ry="3.83"/>
	<ellipse fill="#6D6E71" cx="59.945" cy="58.815" rx="3.792" ry="3.83"/>
</g>
</svg>
